<!-- <svg width="27" height="27" viewBox="0 0 27 27" fill="none" xmlns="http://www.w3.org/2000/svg">
<path d="M23.6842 19.1194L22.2414 17.0438C22.0445 16.7616 21.9385 16.426 21.9377 16.0819V10.125C21.9377 7.88724 21.0487 5.74113 19.4664 4.15879C17.8841 2.57645 15.7379 1.6875 13.5002 1.6875C11.2624 1.6875 9.11631 2.57645 7.53397 4.15879C5.95163 5.74113 5.06268 7.88724 5.06268 10.125V16.0819C5.06187 16.426 4.95588 16.7616 4.75893 17.0438L3.31612 19.1194C3.09765 19.3614 2.954 19.6616 2.90251 19.9836C2.85103 20.3055 2.89393 20.6355 3.02603 20.9336C3.15813 21.2318 3.37376 21.4852 3.64685 21.6634C3.91995 21.8415 4.2388 21.9367 4.56487 21.9375H9.36581C9.55946 22.8912 10.0769 23.7486 10.8303 24.3644C11.5838 24.9803 12.527 25.3167 13.5002 25.3167C14.4733 25.3167 15.4165 24.9803 16.17 24.3644C16.9235 23.7486 17.4409 22.8912 17.6346 21.9375H22.4355C22.7616 21.9367 23.0804 21.8415 23.3535 21.6634C23.6266 21.4852 23.8422 21.2318 23.9743 20.9336C24.1064 20.6355 24.1493 20.3055 24.0978 19.9836C24.0464 19.6616 23.9027 19.3614 23.6842 19.1194ZM13.5002 23.625C12.9779 23.6235 12.4689 23.4606 12.043 23.1585C11.617 22.8563 11.2949 22.4299 11.1208 21.9375H15.8796C15.7055 22.4299 15.3834 22.8563 14.9574 23.1585C14.5314 23.4606 14.0224 23.6235 13.5002 23.625ZM4.56487 20.25C4.603 20.2146 4.63698 20.175 4.66612 20.1319L6.14268 18.0056C6.53658 17.4413 6.74855 16.7701 6.75018 16.0819V10.125C6.75018 8.33479 7.46134 6.6179 8.72721 5.35203C9.99308 4.08616 11.71 3.375 13.5002 3.375C15.2904 3.375 17.0073 4.08616 18.2732 5.35203C19.539 6.6179 20.2502 8.33479 20.2502 10.125V16.0819C20.2518 16.7701 20.4638 17.4413 20.8577 18.0056L22.3342 20.1319C22.3634 20.175 22.3974 20.2146 22.4355 20.25H4.56487Z" fill="black" fill-opacity="0.8"/>
<circle cx="21" cy="5" r="4" fill="#FF5A60"/>
</svg> -->




<svg width="27" height="27" viewBox="0 0 27 27" fill="none" xmlns="http://www.w3.org/2000/svg">
<path d="M23.6841 19.1194L22.2412 17.0438C22.0443 16.7616 21.9383 16.426 21.9375 16.0819V10.125C21.9375 7.88724 21.0485 5.74113 19.4662 4.15879C17.8839 2.57645 15.7378 1.6875 13.5 1.6875C11.2622 1.6875 9.11612 2.57645 7.53378 4.15879C5.95145 5.74113 5.0625 7.88724 5.0625 10.125V16.0819C5.06168 16.426 4.9557 16.7616 4.75875 17.0438L3.31594 19.1194C3.09747 19.3614 2.95381 19.6616 2.90233 19.9836C2.85085 20.3055 2.89375 20.6355 3.02585 20.9336C3.15794 21.2318 3.37358 21.4852 3.64667 21.6634C3.91976 21.8415 4.23862 21.9367 4.56469 21.9375H9.36562C9.55928 22.8912 10.0767 23.7486 10.8302 24.3644C11.5836 24.9803 12.5269 25.3167 13.5 25.3167C14.4731 25.3167 15.4164 24.9803 16.1698 24.3644C16.9233 23.7486 17.4407 22.8912 17.6344 21.9375H22.4353C22.7614 21.9367 23.0802 21.8415 23.3533 21.6634C23.6264 21.4852 23.8421 21.2318 23.9741 20.9336C24.1062 20.6355 24.1491 20.3055 24.0977 19.9836C24.0462 19.6616 23.9025 19.3614 23.6841 19.1194ZM13.5 23.625C12.9778 23.6235 12.4688 23.4606 12.0428 23.1585C11.6168 22.8563 11.2947 22.4299 11.1206 21.9375H15.8794C15.7053 22.4299 15.3832 22.8563 14.9572 23.1585C14.5312 23.4606 14.0222 23.6235 13.5 23.625ZM4.56469 20.25C4.60282 20.2146 4.63679 20.175 4.66594 20.1319L6.1425 18.0056C6.5364 17.4413 6.74837 16.7701 6.75 16.0819V10.125C6.75 8.33479 7.46116 6.6179 8.72703 5.35203C9.9929 4.08616 11.7098 3.375 13.5 3.375C15.2902 3.375 17.0071 4.08616 18.273 5.35203C19.5388 6.6179 20.25 8.33479 20.25 10.125V16.0819C20.2516 16.7701 20.4636 17.4413 20.8575 18.0056L22.3341 20.1319C22.3632 20.175 22.3972 20.2146 22.4353 20.25H4.56469Z" fill="white"/>
<circle cx="21" cy="5" r="4" fill="#FFC828"/>
</svg>
