<svg width="16" height="16" viewBox="0 0 16 16" fill="none" xmlns="http://www.w3.org/2000/svg">
<path d="M8.04574 0.00013452C3.63018 -0.0253592 0.00408248 3.57605 3.4794e-06 7.99246C-0.00135619 9.46562 0.395836 10.8457 1.0891 12.0316C1.16018 12.1533 1.17458 12.2998 1.1281 12.4328L0.277333 14.8681C0.154623 15.2194 0.459868 15.5711 0.824853 15.4989L3.74843 14.9209C3.86014 14.8988 3.9763 14.9166 4.07552 14.9726C5.23416 15.6262 6.57178 15.9997 7.99679 16C12.4085 16.001 15.9974 12.4124 15.9973 7.9999C15.9973 3.59738 12.4416 0.0254583 8.04574 0.00013452ZM3.63919 8.94431C3.63919 9.307 3.34521 9.60099 2.9826 9.60099C2.61999 9.60099 2.32601 9.30696 2.32601 8.94431V7.05574C2.32601 6.69305 2.61999 6.39906 2.9826 6.39906C3.34521 6.39906 3.63919 6.69309 3.63919 7.05574V8.94431ZM6.14722 10.3239C6.14722 10.6866 5.85324 10.9805 5.49063 10.9805C5.12803 10.9805 4.83404 10.6865 4.83404 10.3239V5.67619C4.83404 5.3135 5.12803 5.01951 5.49063 5.01951C5.85324 5.01951 6.14722 5.31354 6.14722 5.67619V10.3239ZM8.65525 8.94431C8.65525 9.307 8.36127 9.60099 7.99866 9.60099C7.63606 9.60099 7.34207 9.30696 7.34207 8.94431V7.05574C7.34207 6.69305 7.63606 6.39906 7.99866 6.39906C8.36127 6.39906 8.65525 6.69309 8.65525 7.05574V8.94431ZM11.1632 9.67207C11.1632 10.0348 10.8693 10.3287 10.5066 10.3287C10.144 10.3287 9.85006 10.0347 9.85006 9.67207V6.32793C9.85006 5.96524 10.144 5.67126 10.5066 5.67126C10.8693 5.67126 11.1632 5.96528 11.1632 6.32793V9.67207ZM13.6712 8.42122C13.6712 8.78391 13.3772 9.0779 13.0146 9.0779C12.652 9.0779 12.358 8.78387 12.358 8.42122V7.57878C12.358 7.21609 12.652 6.92211 13.0146 6.92211C13.3772 6.92211 13.6712 7.21614 13.6712 7.57878V8.42122Z" fill="white"/>
</svg>
