<svg width="36" height="36" viewBox="0 0 36 36" fill="none" xmlns="http://www.w3.org/2000/svg">
<circle cx="18" cy="18" r="18" fill="#FF5A60"/>
<path d="M11.7509 17.4994C11.4194 17.5003 11.0949 17.5951 10.815 17.7728C10.535 17.9504 10.3111 18.2037 10.1692 18.5033C10.0272 18.8029 9.97292 19.1366 10.0127 19.4658C10.0524 19.7949 10.1845 20.1061 10.3938 20.3633L14.8539 25.827C15.0129 26.0244 15.2168 26.1811 15.4485 26.284C15.6802 26.3868 15.9332 26.4329 16.1863 26.4184C16.7277 26.3893 17.2164 26.0997 17.528 25.6236L26.7929 10.7025C26.7944 10.7001 26.796 10.6976 26.7976 10.6952C26.8845 10.5617 26.8564 10.2972 26.6769 10.131C26.6276 10.0854 26.5695 10.0503 26.5062 10.028C26.4428 10.0057 26.3756 9.99653 26.3086 10.0012C26.2415 10.0058 26.1762 10.0241 26.1165 10.055C26.0569 10.0859 26.0042 10.1286 25.9616 10.1806C25.9583 10.1847 25.9549 10.1887 25.9514 10.1927L16.6076 20.7497C16.5721 20.7899 16.5289 20.8226 16.4806 20.8459C16.4323 20.8693 16.3798 20.8828 16.3263 20.8857C16.2727 20.8886 16.2191 20.8808 16.1686 20.8628C16.118 20.8448 16.0716 20.8169 16.0319 20.7808L12.9309 17.9589C12.6088 17.6637 12.1879 17.4997 11.7509 17.4994Z" fill="white"/>
</svg>
