<svg width="16" height="17" viewBox="0 0 16 17" fill="none" xmlns="http://www.w3.org/2000/svg">
<path d="M15.6756 4.42875C15.5768 2.78656 14.2056 1.5 12.554 1.5H11.7499V0.875C11.7499 0.53 11.4699 0.25 11.1249 0.25C10.7799 0.25 10.4999 0.53 10.4999 0.875V1.5H5.49994V0.875C5.49994 0.53 5.21994 0.25 4.87494 0.25C4.52994 0.25 4.24994 0.53 4.24994 0.875V1.5H3.44588C1.79401 1.5 0.422757 2.78656 0.324319 4.42875C0.139007 7.5175 0.142444 10.6506 0.334632 13.7409C0.432132 15.3103 1.68932 16.5675 3.25869 16.665C4.83151 16.7628 6.41557 16.8116 7.99963 16.8116C9.58338 16.8116 11.1678 16.7628 12.7406 16.665C14.3099 16.5675 15.5671 15.3103 15.6646 13.7409C15.8571 10.6522 15.8606 7.51937 15.6756 4.42875ZM14.4174 13.6634C14.3587 14.605 13.6046 15.3591 12.6634 15.4175C9.56901 15.6097 6.43088 15.6097 3.33651 15.4175C2.39494 15.3587 1.64088 14.6047 1.58244 13.6634C1.43463 11.2875 1.40432 8.88656 1.48338 6.5H14.5168C14.5956 8.8875 14.5653 11.2884 14.4174 13.6634ZM4.87494 4C5.21994 4 5.49994 3.72 5.49994 3.375V2.75H10.4999V3.375C10.4999 3.72 10.7799 4 11.1249 4C11.4699 4 11.7499 3.72 11.7499 3.375V2.75H12.554C13.5456 2.75 14.3687 3.52031 14.4278 4.50344C14.4424 4.75156 14.4487 5.00125 14.4609 5.25H1.53901C1.55151 5.00125 1.55744 4.75156 1.57213 4.50344C1.63119 3.52031 2.45401 2.75 3.44588 2.75H4.24994V3.375C4.24994 3.72 4.52994 4 4.87494 4Z" fill="white"/>
<path d="M4.875 10.25C5.39277 10.25 5.8125 9.83027 5.8125 9.3125C5.8125 8.79473 5.39277 8.375 4.875 8.375C4.35723 8.375 3.9375 8.79473 3.9375 9.3125C3.9375 9.83027 4.35723 10.25 4.875 10.25Z" fill="white"/>
<path d="M8 10.25C8.51777 10.25 8.9375 9.83027 8.9375 9.3125C8.9375 8.79473 8.51777 8.375 8 8.375C7.48223 8.375 7.0625 8.79473 7.0625 9.3125C7.0625 9.83027 7.48223 10.25 8 10.25Z" fill="white"/>
<path d="M4.875 13.375C5.39277 13.375 5.8125 12.9553 5.8125 12.4375C5.8125 11.9197 5.39277 11.5 4.875 11.5C4.35723 11.5 3.9375 11.9197 3.9375 12.4375C3.9375 12.9553 4.35723 13.375 4.875 13.375Z" fill="white"/>
<path d="M11.125 10.25C11.6428 10.25 12.0625 9.83027 12.0625 9.3125C12.0625 8.79473 11.6428 8.375 11.125 8.375C10.6072 8.375 10.1875 8.79473 10.1875 9.3125C10.1875 9.83027 10.6072 10.25 11.125 10.25Z" fill="white"/>
<path d="M11.125 13.375C11.6428 13.375 12.0625 12.9553 12.0625 12.4375C12.0625 11.9197 11.6428 11.5 11.125 11.5C10.6072 11.5 10.1875 11.9197 10.1875 12.4375C10.1875 12.9553 10.6072 13.375 11.125 13.375Z" fill="white"/>
<path d="M8 13.375C8.51777 13.375 8.9375 12.9553 8.9375 12.4375C8.9375 11.9197 8.51777 11.5 8 11.5C7.48223 11.5 7.0625 11.9197 7.0625 12.4375C7.0625 12.9553 7.48223 13.375 8 13.375Z" fill="white"/>
</svg>
