<svg width="15" height="18" viewBox="0 0 15 18" fill="none" xmlns="http://www.w3.org/2000/svg">
<path d="M13.0903 4.90869C12.8733 4.90869 12.6652 4.99489 12.5118 5.14832C12.3583 5.30175 12.2721 5.50985 12.2721 5.72683V14.8826C12.2487 15.2964 12.0627 15.6841 11.7547 15.9613C11.4467 16.2385 11.0416 16.3827 10.6277 16.3627H4.09892C3.68502 16.3827 3.27995 16.2385 2.97194 15.9613C2.66392 15.6841 2.47793 15.2964 2.45446 14.8826V5.72683C2.45446 5.50985 2.36826 5.30175 2.21483 5.14832C2.0614 4.99489 1.8533 4.90869 1.63632 4.90869C1.41933 4.90869 1.21124 4.99489 1.0578 5.14832C0.904373 5.30175 0.818176 5.50985 0.818176 5.72683V14.8826C0.841529 15.7304 1.19991 16.5344 1.81482 17.1185C2.42973 17.7026 3.25106 18.0192 4.09892 17.9989H10.6277C11.4755 18.0192 12.2969 17.7026 12.9118 17.1185C13.5267 16.5344 13.8851 15.7304 13.9084 14.8826V5.72683C13.9084 5.50985 13.8222 5.30175 13.6688 5.14832C13.5154 4.99489 13.3073 4.90869 13.0903 4.90869Z" fill="black"/>
<path d="M13.9084 2.45442H10.6358V0.81814C10.6358 0.601156 10.5496 0.393059 10.3962 0.239628C10.2428 0.0861966 10.0347 0 9.81768 0H4.90884C4.69186 0 4.48376 0.0861966 4.33033 0.239628C4.1769 0.393059 4.0907 0.601156 4.0907 0.81814V2.45442H0.81814C0.601156 2.45442 0.393059 2.54062 0.239628 2.69405C0.0861966 2.84748 0 3.05558 0 3.27256C0 3.48955 0.0861966 3.69764 0.239628 3.85107C0.393059 4.0045 0.601156 4.0907 0.81814 4.0907H13.9084C14.1254 4.0907 14.3335 4.0045 14.4869 3.85107C14.6403 3.69764 14.7265 3.48955 14.7265 3.27256C14.7265 3.05558 14.6403 2.84748 14.4869 2.69405C14.3335 2.54062 14.1254 2.45442 13.9084 2.45442ZM5.72698 2.45442V1.63628H8.99954V2.45442H5.72698Z" fill="black"/>
<path d="M6.54512 13.09V7.36306C6.54512 7.14608 6.45893 6.93798 6.3055 6.78455C6.15207 6.63112 5.94397 6.54492 5.72698 6.54492C5.51 6.54492 5.3019 6.63112 5.14847 6.78455C4.99504 6.93798 4.90884 7.14608 4.90884 7.36306V13.09C4.90884 13.307 4.99504 13.5151 5.14847 13.6686C5.3019 13.822 5.51 13.9082 5.72698 13.9082C5.94397 13.9082 6.15207 13.822 6.3055 13.6686C6.45893 13.5151 6.54512 13.307 6.54512 13.09Z" fill="black"/>
<path d="M9.81774 13.09V7.36306C9.81774 7.14608 9.73154 6.93798 9.57811 6.78455C9.42468 6.63112 9.21658 6.54492 8.9996 6.54492C8.78261 6.54492 8.57452 6.63112 8.42109 6.78455C8.26765 6.93798 8.18146 7.14608 8.18146 7.36306V13.09C8.18146 13.307 8.26765 13.5151 8.42109 13.6686C8.57452 13.822 8.78261 13.9082 8.9996 13.9082C9.21658 13.9082 9.42468 13.822 9.57811 13.6686C9.73154 13.5151 9.81774 13.307 9.81774 13.09Z" fill="black"/>
</svg>
