<svg width="196" height="191" viewBox="0 0 196 191" fill="none" xmlns="http://www.w3.org/2000/svg">
<g clip-path="url(#clip0_55_2276)">
<path d="M185.443 74.6773C176.964 65.2996 162.757 64.2509 151.71 58.1031C132.697 47.5228 125.327 23.4305 108.029 10.2307C97.1034 1.89701 82.346 -1.33301 69.1501 0.494073C50.4166 3.08555 32.7878 15.6421 27.4973 34.0341C26.029 39.1378 25.4417 44.675 25.8939 50.5384C26.7422 61.5149 29.1008 72.6312 26.8727 83.4119C24.4162 95.2926 16.6879 105.328 12.0686 116.546C6.31669 130.515 5.52428 146.19 7.98541 161.096C9.66345 171.266 13.0102 181.534 19.9927 189.112C20.5195 189.686 21.0695 190.231 21.6288 190.767H97.8912C102.674 184.666 106.3 177.446 110.509 171.042C121.099 154.92 138.057 143.431 156.576 138.038C164.873 135.624 173.86 134.188 180.525 128.688C187.387 123.03 190.538 114.006 191.899 105.225C193.549 94.5888 192.659 82.6662 185.438 74.682L185.443 74.6773Z" fill="#FF5A60"/>
<path opacity="0.7" d="M185.443 74.6773C176.964 65.2996 162.757 64.2509 151.71 58.1031C132.697 47.5228 125.327 23.4305 108.029 10.2307C97.1034 1.89701 82.346 -1.33301 69.1501 0.494073C50.4166 3.08555 32.7878 15.6421 27.4973 34.0341C26.029 39.1378 25.4417 44.675 25.8939 50.5384C26.7422 61.5149 29.1008 72.6312 26.8727 83.4119C24.4162 95.2926 16.6879 105.328 12.0686 116.546C6.31669 130.515 5.52428 146.19 7.98541 161.096C9.66345 171.266 13.0102 181.534 19.9927 189.112C20.5195 189.686 21.0695 190.231 21.6288 190.767H97.8912C102.674 184.666 106.3 177.446 110.509 171.042C121.099 154.92 138.057 143.431 156.576 138.038C164.873 135.624 173.86 134.188 180.525 128.688C187.387 123.03 190.538 114.006 191.899 105.225C193.549 94.5888 192.659 82.6662 185.438 74.682L185.443 74.6773Z" fill="white"/>
<path d="M10.3672 164.479L10.4604 166.176L10.4744 166.446L10.6888 170.422L10.7261 171.177L10.9172 174.677L10.9825 175.917L11.1456 178.928L11.2342 180.648L11.374 183.179L11.4905 185.384L11.6024 187.434C11.6024 187.434 11.6257 187.887 11.6537 188.418" stroke="#263238" stroke-linecap="round" stroke-linejoin="round"/>
<path d="M11.6953 189.22C11.7233 189.714 11.7419 190.119 11.7419 190.119L11.7606 190.506H33.6264L33.673 189.653L33.7802 187.644L33.9014 185.398L34.0319 182.918L34.1298 181.147L34.2883 178.178L34.3582 176.896C34.3582 176.896 34.3955 176.211 34.4374 175.451" stroke="#263238" stroke-linecap="round" stroke-linejoin="round"/>
<path d="M34.4902 174.524C34.5229 173.922 34.5462 173.447 34.5462 173.447L34.5881 172.645L34.7979 168.711L34.8165 168.394C34.8165 168.394 34.8725 167.35 34.9284 166.339" stroke="#263238" stroke-linecap="round" stroke-linejoin="round"/>
<path d="M34.9746 165.486C35.0072 164.913 35.0305 164.479 35.0305 164.479" stroke="#263238" stroke-linecap="round" stroke-linejoin="round"/>
<path d="M12.1349 190.506L11.748 190.119" stroke="#263238" stroke-linecap="round" stroke-linejoin="round"/>
<path d="M16.6129 190.506L14.809 188.702L12.5716 186.465L11.4902 185.384" stroke="#263238" stroke-linecap="round" stroke-linejoin="round"/>
<path d="M21.0975 190.506L19.2936 188.702L17.0516 186.46L14.8142 184.223L12.5721 181.981L11.2344 180.648" stroke="#263238" stroke-linecap="round" stroke-linejoin="round"/>
<path d="M25.5727 190.506L23.7688 188.702L21.5314 186.465L20.9395 185.873" stroke="#263238" stroke-linecap="round" stroke-linejoin="round"/>
<path d="M20.2911 185.225L19.289 184.223L17.0516 181.986L14.8095 179.744L12.5675 177.502L11.9941 176.929" stroke="#263238" stroke-linecap="round" stroke-linejoin="round"/>
<path d="M30.0567 190.506L28.2528 188.702L26.0107 186.46L23.7733 184.223L21.5313 181.981L19.2939 179.744L17.0519 177.502L14.8098 175.26L12.5724 173.023L10.7266 171.177" stroke="#263238" stroke-linecap="round" stroke-linejoin="round"/>
<path d="M33.678 189.653L32.7271 188.702L30.4897 186.465C30.4897 186.465 30.2054 186.181 29.8418 185.817" stroke="#263238" stroke-linecap="round" stroke-linejoin="round"/>
<path d="M28.9187 184.894C28.5411 184.517 28.2474 184.223 28.2474 184.223L26.0101 181.986L23.768 179.744L21.5306 177.502L19.2886 175.265L17.0512 173.023C17.0512 173.023 16.5431 172.52 16.0117 171.988" stroke="#263238" stroke-linecap="round" stroke-linejoin="round"/>
<path d="M14.8103 170.786L12.5683 168.544C12.5683 168.544 11.9437 167.914 11.375 167.346" stroke="#263238" stroke-linecap="round" stroke-linejoin="round"/>
<path d="M12.9863 164.479L14.8089 166.302L17.0509 168.544L19.2883 170.781L21.5304 173.023L23.7724 175.265L26.0098 177.502L28.2519 179.744L30.4892 181.981L32.7313 184.223L33.9059 185.398" stroke="#263238" stroke-linecap="round" stroke-linejoin="round"/>
<path d="M17.4668 164.479L19.294 166.306L21.5314 168.544L23.7734 170.786L26.0108 173.023L28.2529 175.265L30.4949 177.507L32.7323 179.744L34.1354 181.147" stroke="#263238" stroke-linecap="round" stroke-linejoin="round"/>
<path d="M21.9453 164.479L23.7679 166.302L26.0099 168.544L28.252 170.786L30.4893 173.023L32.7314 175.265L34.3628 176.896" stroke="#263238" stroke-linecap="round" stroke-linejoin="round"/>
<path d="M26.4258 164.479L28.253 166.306L30.4904 168.544L32.7324 170.786L34.5923 172.645" stroke="#263238" stroke-linecap="round" stroke-linejoin="round"/>
<path d="M30.9043 164.479L32.7315 166.306L34.8197 168.395" stroke="#263238" stroke-linecap="round" stroke-linejoin="round"/>
<path d="M33.7858 187.644L32.7277 188.702L30.9238 190.506" stroke="#263238" stroke-linecap="round" stroke-linejoin="round"/>
<path d="M34.0377 182.918L32.7326 184.223L30.4905 186.465L28.2531 188.702L26.4492 190.506" stroke="#263238" stroke-linecap="round" stroke-linejoin="round"/>
<path d="M34.2938 178.178L32.7323 179.744L30.4902 181.981L28.2482 184.223L26.0108 186.46L23.7687 188.702L21.9648 190.506" stroke="#263238" stroke-linecap="round" stroke-linejoin="round"/>
<path d="M34.5506 173.447L32.7327 175.265L30.4953 177.507L28.2533 179.744C28.2533 179.744 28.1274 179.87 27.9316 180.066" stroke="#263238" stroke-linecap="round" stroke-linejoin="round"/>
<path d="M26.7945 181.203C26.3657 181.632 26.0114 181.986 26.0114 181.986L23.774 184.223L21.532 186.465L19.2946 188.702C19.2946 188.702 18.8518 189.145 18.4043 189.592" stroke="#263238" stroke-linecap="round" stroke-linejoin="round"/>
<path d="M34.8018 168.711L32.7322 170.786L30.4901 173.023L28.2527 175.265L26.0107 177.502L23.7686 179.744L21.5312 181.981L19.2892 184.223L17.0518 186.46L14.8098 188.702L13.0059 190.506" stroke="#263238" stroke-linecap="round" stroke-linejoin="round"/>
<path d="M11.6035 187.434L12.5731 186.465L14.8151 184.223L17.0525 181.986L19.2945 179.744C19.2945 179.744 19.5975 179.441 19.9797 179.059" stroke="#263238" stroke-linecap="round" stroke-linejoin="round"/>
<path d="M20.959 178.075C21.2853 177.749 21.5277 177.502 21.5277 177.502L23.7697 175.265L26.0071 173.023L28.2491 170.786L30.4865 168.544L32.7286 166.306C32.7286 166.306 33.1714 165.864 33.6189 165.416" stroke="#263238" stroke-linecap="round" stroke-linejoin="round"/>
<path d="M11.375 183.179L12.5729 181.981L14.8103 179.744L17.0524 177.502L19.2898 175.265L21.5318 173.023L23.7739 170.786L26.0113 168.544L28.2533 166.306L30.0758 164.479" stroke="#263238" stroke-linecap="round" stroke-linejoin="round"/>
<path d="M11.1465 178.928L12.5682 177.502L14.8102 175.26C14.8102 175.26 15.1971 174.873 15.6492 174.421" stroke="#263238" stroke-linecap="round" stroke-linejoin="round"/>
<path d="M16.2637 173.811C16.6925 173.382 17.0514 173.023 17.0514 173.023L19.2888 170.781L21.5309 168.544L23.7683 166.302C23.7683 166.302 24.0945 165.98 24.4674 165.603" stroke="#263238" stroke-linecap="round" stroke-linejoin="round"/>
<path d="M10.918 174.678L12.5727 173.023L14.8101 170.786L17.0521 168.544L19.2942 166.307C19.2942 166.307 19.8815 165.719 20.3896 165.211" stroke="#263238" stroke-linecap="round" stroke-linejoin="round"/>
<path d="M10.6895 170.422L12.5679 168.544L14.81 166.302L16.6372 164.479" stroke="#263238" stroke-linecap="round" stroke-linejoin="round"/>
<path d="M12.1576 164.479L10.4609 166.176" stroke="#263238" stroke-linecap="round" stroke-linejoin="round"/>
<path d="M17.2852 161.622H33.2685" stroke="#263238" stroke-linecap="round" stroke-linejoin="round"/>
<path d="M34.1918 161.622H35.9445V164.479H29.7637" stroke="#263238" stroke-linecap="round" stroke-linejoin="round"/>
<path d="M28.2244 164.479H15.5645" stroke="#263238" stroke-linecap="round" stroke-linejoin="round"/>
<path d="M15.0101 164.479H9.44922V163.277" stroke="#263238" stroke-linecap="round" stroke-linejoin="round"/>
<path d="M9.44922 163.03V161.622H15.7465" stroke="#263238" stroke-linecap="round" stroke-linejoin="round"/>
<path d="M26.4668 139.483V159.087" stroke="#263238" stroke-linecap="round" stroke-linejoin="round"/>
<path d="M26.4668 133.107V137.283" stroke="#263238" stroke-linecap="round" stroke-linejoin="round"/>
<path d="M115.459 190.431V122.773H26.4668V130.744" stroke="#263238" stroke-linecap="round" stroke-linejoin="round"/>
<path d="M103.508 126.745H110.626V187.099" stroke="#263238" stroke-linecap="round" stroke-linejoin="round"/>
<path d="M31.3008 159.087V126.745H99.3734" stroke="#263238" stroke-linecap="round" stroke-linejoin="round"/>
<path d="M34.7129 119.017H36.9736" stroke="#263238" stroke-linecap="round" stroke-linejoin="round"/>
<path d="M40.2173 119.017H117.5V122.75H24.4297V119.017H33.2674" stroke="#263238" stroke-linecap="round" stroke-linejoin="round"/>
<path d="M135.916 117.171L134.807 124.377" stroke="#263238" stroke-linecap="round" stroke-linejoin="round"/>
<path d="M129.107 87.5974H134.482C137.633 87.5974 140.043 90.4079 139.563 93.5214L136.523 113.223" stroke="#263238" stroke-linecap="round" stroke-linejoin="round"/>
<path d="M123.645 87.5974H127.569" stroke="#263238" stroke-linecap="round" stroke-linejoin="round"/>
<path d="M101.027 114.607L104.519 91.9554C104.905 89.4478 107.064 87.5974 109.599 87.5974H120.842" stroke="#263238" stroke-linecap="round" stroke-linejoin="round"/>
<path d="M97.1309 139.888L98.8788 128.539" stroke="#263238" stroke-linecap="round" stroke-linejoin="round"/>
<path d="M117.006 154.365H122.352C125.005 154.365 127.414 153.316 129.181 151.611" stroke="#263238" stroke-linecap="round" stroke-linejoin="round"/>
<path d="M87.543 154.365H106.174" stroke="#263238" stroke-linecap="round" stroke-linejoin="round"/>
<path d="M79.8379 152.682C81.4087 153.745 83.3058 154.365 85.3428 154.365" stroke="#263238" stroke-linecap="round" stroke-linejoin="round"/>
<path d="M109.064 139.888H79.1711C77.1435 139.888 75.498 141.534 75.498 143.561V144.521C75.498 146.828 76.2905 148.954 77.6236 150.632" stroke="#263238" stroke-linecap="round" stroke-linejoin="round"/>
<path d="M131.936 142.177C131.39 140.834 130.071 139.888 128.533 139.888H123.205" stroke="#263238" stroke-linecap="round" stroke-linejoin="round"/>
<path d="M109.128 157.073H96.3333L93.6484 154.365" stroke="#263238" stroke-linecap="round" stroke-linejoin="round"/>
<path d="M100.011 157.073H107.688V166.041C107.688 166.507 107.31 166.889 106.839 166.889H100.854C100.388 166.889 100.006 166.511 100.006 166.041V157.073H100.011Z" stroke="#263238" stroke-linecap="round" stroke-linejoin="round"/>
<path d="M106.252 166.884H101.451V177.94H106.252V166.884Z" stroke="#263238" stroke-linecap="round" stroke-linejoin="round"/>
<path d="M81.8418 184.745C89.8405 179.418 101.447 177.94 101.447 177.94" stroke="#263238" stroke-linecap="round" stroke-linejoin="round"/>
<path d="M109.111 183.156C101.014 181.967 92.9552 183.762 85.3574 185.719" stroke="#263238" stroke-linecap="round" stroke-linejoin="round"/>
<path d="M122.348 185.724C120.502 185.248 118.638 184.834 116.773 184.451" stroke="#263238" stroke-linecap="round" stroke-linejoin="round"/>
<path d="M117.006 180.541C120.096 181.599 123.131 182.932 125.858 184.745" stroke="#263238" stroke-linecap="round" stroke-linejoin="round"/>
<path d="M106.252 177.94C107.263 178.075 108.27 178.262 109.268 178.462" stroke="#263238" stroke-linecap="round" stroke-linejoin="round"/>
<path d="M82.7826 190.767C84.4457 190.767 85.7938 189.419 85.7938 187.756C85.7938 186.093 84.4457 184.745 82.7826 184.745C81.1196 184.745 79.7715 186.093 79.7715 187.756C79.7715 189.419 81.1196 190.767 82.7826 190.767Z" stroke="#263238" stroke-linecap="round" stroke-linejoin="round"/>
<path d="M128.333 187.756C128.333 189.42 126.986 190.767 125.322 190.767C123.658 190.767 122.311 189.42 122.311 187.756C122.311 186.092 123.658 184.745 125.322 184.745C126.986 184.745 128.333 186.092 128.333 187.756Z" stroke="#263238" stroke-linecap="round" stroke-linejoin="round"/>
<path d="M121.673 148.222L124.036 132.221C124.265 130.688 125.476 129.49 127.01 129.275L137.992 127.765C138.836 127.649 139.465 126.926 139.465 126.078C139.465 125.136 138.7 124.372 137.759 124.372H136.374L125.495 126.045C122.829 126.456 120.759 128.576 120.405 131.247L118.13 148.604C118.046 149.247 118.545 149.816 119.193 149.816" stroke="#263238" stroke-linecap="round" stroke-linejoin="round"/>
<path d="M137.991 127.77L135.134 142.969C135.922 142.969 136.56 143.608 136.56 144.395V147.299C136.56 149.299 134.938 150.921 132.938 150.921H119.584" stroke="#263238" stroke-linecap="round" stroke-linejoin="round"/>
<path d="M136.099 128.031L133.125 142.643H125.322" stroke="#263238" stroke-linecap="round" stroke-linejoin="round"/>
<path d="M79.208 131.256L78.4062 137.353" stroke="#263238" stroke-linecap="round" stroke-linejoin="round"/>
<path d="M81.9902 137.963L82.8386 132.221C83.067 130.688 84.2789 129.49 85.8124 129.275L96.7943 127.765" stroke="#263238" stroke-linecap="round" stroke-linejoin="round"/>
<path d="M57.307 96.1782L61.586 116.136C61.7678 116.994 62.5276 117.604 63.4039 117.604H95.2168C96.0232 117.604 96.6245 116.854 96.4474 116.066L91.9679 96.1036C91.7768 95.2553 91.0217 94.6494 90.1547 94.6494H58.5376C57.7359 94.6494 57.1346 95.3905 57.307 96.1735V96.1782Z" stroke="#263238" stroke-linecap="round" stroke-linejoin="round"/>
<path d="M75.6623 103.855H73.1965L72.502 106.055L74.2686 108.259H76.7297L77.4242 106.055L75.6623 103.855Z" stroke="#263238" stroke-linecap="round" stroke-linejoin="round"/>
<path d="M98.0039 116.248H110.627V116.933C110.627 117.618 110.072 118.168 109.391 118.168H109.065" stroke="#263238" stroke-linecap="round" stroke-linejoin="round"/>
<path d="M166.904 165.598C166.904 165.598 173.919 166.153 174.213 171.326C174.213 171.326 167.109 174.598 166.904 165.598Z" stroke="#263238" stroke-linecap="round" stroke-linejoin="round"/>
<path d="M180.785 166.884C180.785 166.884 184.705 161.585 191.04 164.302C191.04 164.302 187.171 170.711 180.785 166.884Z" stroke="#263238" stroke-linecap="round" stroke-linejoin="round"/>
<path d="M190.5 150.152C190.5 150.152 191.628 160.345 182.348 157.539C182.348 157.539 185.294 150.044 190.5 150.152Z" stroke="#263238" stroke-linecap="round" stroke-linejoin="round"/>
<path d="M179.108 144.475C179.108 144.475 186.45 148.432 181.052 154.44C181.052 154.44 175.906 150.152 179.108 144.475Z" stroke="#263238" stroke-linecap="round" stroke-linejoin="round"/>
<path d="M170.074 153.587C170.074 153.587 178.054 152.78 178.054 160.168C178.054 160.168 170.074 160.48 170.074 153.587Z" stroke="#263238" stroke-linecap="round" stroke-linejoin="round"/>
<path d="M176.055 175.498C175.938 173.018 175.938 169.83 177.453 166.46C180.945 158.686 182.128 152.137 180.301 147.523" stroke="#263238" stroke-linecap="round" stroke-linejoin="round"/>
<path d="M172.697 155.572C172.697 155.572 177.48 157.474 179.106 162.401" stroke="#263238" stroke-linecap="round" stroke-linejoin="round"/>
<path d="M187.978 154.23C187.978 154.23 185.214 157.996 180.529 157.591" stroke="#263238" stroke-linecap="round" stroke-linejoin="round"/>
<path d="M187.977 165.384C187.977 165.384 180.323 167.588 177.279 166.866" stroke="#263238" stroke-linecap="round" stroke-linejoin="round"/>
<path d="M169.193 167.928C169.193 167.928 172.615 171.685 176.059 171.624" stroke="#263238" stroke-linecap="round" stroke-linejoin="round"/>
<path d="M185.159 175.498H168.523C168.299 175.498 168.117 175.679 168.117 175.903V177.166C168.117 177.39 168.299 177.572 168.523 177.572H169.007L170.49 190.511H183.192L184.674 177.572H185.159C185.382 177.572 185.564 177.39 185.564 177.166V175.903C185.564 175.679 185.382 175.498 185.159 175.498Z" stroke="#263238" stroke-linecap="round" stroke-linejoin="round"/>
<path d="M170.074 177.567H179.751" stroke="#263238" stroke-linecap="round" stroke-linejoin="round"/>
<path d="M181.578 177.567H183.028" stroke="#263238" stroke-linecap="round" stroke-linejoin="round"/>
<path d="M87.8869 16.276V145.812C87.8869 146.432 87.3834 146.936 86.7635 146.936H10.0257C9.40576 146.936 8.90234 146.432 8.90234 145.812V16.276C8.90234 15.6561 9.40576 15.1527 10.0257 15.1527H34.2874C34.9446 15.1527 35.476 15.6841 35.476 16.3412V19.0632C35.476 19.7204 36.0074 20.2518 36.6646 20.2518H60.1292C60.7865 20.2518 61.3179 19.7204 61.3179 19.0632V16.3412C61.3179 15.6841 61.8492 15.1527 62.5065 15.1527H86.7635C87.3834 15.1527 87.8869 15.6561 87.8869 16.276Z" fill="white" stroke="#263238" stroke-linecap="round" stroke-linejoin="round"/>
<path d="M87.8869 27.933H8.90234V39.8323H87.8869V27.933Z" fill="#BFBFBF" stroke="#263238" stroke-linecap="round" stroke-linejoin="round"/>
<path d="M19.2266 63.673H51.3797" stroke="#263238" stroke-linecap="round" stroke-linejoin="round"/>
<path d="M27.1641 69.2521H77.5566" stroke="#263238" stroke-linecap="round" stroke-linejoin="round"/>
<path d="M19.2266 73.4189H77.5572" stroke="#263238" stroke-linecap="round" stroke-linejoin="round"/>
<path d="M19.2266 77.5812H77.5572" stroke="#263238" stroke-linecap="round" stroke-linejoin="round"/>
<path d="M19.2266 81.748H77.5572" stroke="#263238" stroke-linecap="round" stroke-linejoin="round"/>
<path d="M19.2266 85.9149H77.5572" stroke="#263238" stroke-linecap="round" stroke-linejoin="round"/>
<path d="M19.2266 90.0771H77.5572" stroke="#263238" stroke-linecap="round" stroke-linejoin="round"/>
<path d="M19.2266 94.244H46.3083" stroke="#263238" stroke-linecap="round" stroke-linejoin="round"/>
<path d="M78.9922 32.4167H81.9707" stroke="#263238" stroke-linecap="round" stroke-linejoin="round"/>
<path d="M78.9922 33.7871H81.9707" stroke="#263238" stroke-linecap="round" stroke-linejoin="round"/>
<path d="M78.9922 35.1573H81.9707" stroke="#263238" stroke-linecap="round" stroke-linejoin="round"/>
<path d="M17.1765 33.7871H14.6641" stroke="#263238" stroke-linecap="round" stroke-linejoin="round"/>
<path d="M15.8191 35.3112L14.2949 33.7871L15.8191 32.2629" stroke="#263238" stroke-linecap="round" stroke-linejoin="round"/>
<path d="M74.6019 32.4167H70.8496V35.1574H74.6019V32.4167Z" stroke="#263238" stroke-linecap="round" stroke-linejoin="round"/>
<path d="M70.8496 32.4167L72.7281 33.7871L74.6019 32.4167" stroke="#263238" stroke-linecap="round" stroke-linejoin="round"/>
<path d="M66.0065 35.6887H63.4801L63.1445 32.4167H66.3421L66.0065 35.6887Z" stroke="#263238" stroke-linecap="round" stroke-linejoin="round"/>
<path d="M64.1133 32.4167V31.8854H65.3718V32.4167" stroke="#263238" stroke-linecap="round" stroke-linejoin="round"/>
<path d="M87.8869 137.479V145.812C87.8869 146.432 87.3881 146.936 86.7635 146.936H10.0257C9.40576 146.936 8.90234 146.432 8.90234 145.812V137.479H87.8869Z" fill="#FF5A60" stroke="#263238" stroke-linecap="round" stroke-linejoin="round"/>
<path d="M28.9473 49.858H61.1004" stroke="#263238" stroke-linecap="round" stroke-linejoin="round"/>
<path d="M23.0323 53.7735C25.1947 53.4225 26.6632 51.3851 26.3122 49.2228C25.9612 47.0605 23.9236 45.5921 21.7612 45.9431C19.5987 46.2941 18.1303 48.3315 18.4813 50.4938C18.8323 52.6561 20.8699 54.1245 23.0323 53.7735Z" fill="#FF5A60" stroke="#263238" stroke-linecap="round" stroke-linejoin="round"/>
<path d="M24.0198 52.3329C23.7774 52.3329 23.0782 51.8016 23.3159 51.3727C23.5583 50.9393 24.0198 50.2168 24.0198 50.2168C24.3088 49.83 24.3554 48.9164 24.3554 48.9164C24.4533 48.2453 24.0664 47.0894 22.393 47.0894C20.7196 47.0894 20.3374 48.2453 20.4306 48.9164C20.4306 48.9164 20.4772 49.83 20.7662 50.2168C20.7662 50.2168 21.2277 50.9393 21.4701 51.3727C21.7125 51.8062 21.0086 52.3329 20.7662 52.3329C20.5239 52.3329 19.6289 52.7011 19.6289 52.7011C19.6289 52.7011 21.2277 53.8244 22.393 53.8244C23.5583 53.8244 25.1571 52.7011 25.1571 52.7011C25.1571 52.7011 24.2575 52.3329 24.0198 52.3329Z" fill="#263238"/>
<path d="M8.90234 102.47H87.8869" stroke="#263238" stroke-linecap="round" stroke-linejoin="round"/>
<path d="M87.8869 124.153H8.90234V137.483H87.8869V124.153Z" fill="#BFBFBF" stroke="#263238" stroke-linecap="round" stroke-linejoin="round"/>
<path d="M77.0773 107.467H70.5702C69.2985 107.467 68.2676 108.498 68.2676 109.769V116.276C68.2676 117.548 69.2985 118.579 70.5702 118.579H77.0773C78.349 118.579 79.3799 117.548 79.3799 116.276V109.769C79.3799 108.498 78.349 107.467 77.0773 107.467Z" fill="#FF5A60" stroke="#263238" stroke-linecap="round" stroke-linejoin="round"/>
<path d="M72.1092 112.17L73.6707 110.608C74.3466 109.933 75.442 109.933 76.1179 110.608C76.7938 111.284 76.7938 112.38 76.1179 113.055L73.5682 115.605C73.1161 116.057 72.3842 116.057 71.9368 115.605C71.4846 115.153 71.4846 114.421 71.9368 113.974L74.3606 111.55C74.5704 111.34 74.9153 111.34 75.125 111.55C75.3348 111.76 75.3348 112.105 75.125 112.314L73.8246 113.615" stroke="#263238" stroke-linecap="round" stroke-linejoin="round"/>
<path d="M19.2266 110.939H62.9629" stroke="#263238" stroke-linecap="round" stroke-linejoin="round"/>
<path d="M19.2266 115.106H55.668" stroke="#263238" stroke-linecap="round" stroke-linejoin="round"/>
<path d="M28.8524 127.448H20.4342C19.5796 127.448 18.8867 128.141 18.8867 128.996V132.566C18.8867 133.421 19.5796 134.113 20.4342 134.113H28.8524C29.7071 134.113 30.4 133.421 30.4 132.566V128.996C30.4 128.141 29.7071 127.448 28.8524 127.448Z" stroke="#263238" stroke-linecap="round" stroke-linejoin="round"/>
<path d="M26.3738 132.137V131.662C26.3738 131.009 25.8471 130.483 25.1945 130.483H23.2461" stroke="#263238" stroke-linecap="round" stroke-linejoin="round"/>
<path d="M23.9683 131.536L22.9102 130.478L23.9683 129.425" stroke="#263238" stroke-linecap="round" stroke-linejoin="round"/>
<path d="M52.8856 127.448H44.4674C43.6128 127.448 42.9199 128.141 42.9199 128.996V132.566C42.9199 133.421 43.6128 134.113 44.4674 134.113H52.8856C53.7403 134.113 54.4332 133.421 54.4332 132.566V128.996C54.4332 128.141 53.7403 127.448 52.8856 127.448Z" stroke="#263238" stroke-linecap="round" stroke-linejoin="round"/>
<path d="M50.9558 132.137V131.662C50.9558 131.009 50.4291 130.483 49.7765 130.483H47.8281" stroke="#263238" stroke-linecap="round" stroke-linejoin="round"/>
<path d="M48.5515 131.536L47.498 130.478L48.5515 129.425" stroke="#263238" stroke-linecap="round" stroke-linejoin="round"/>
<path d="M47.4558 131.536L46.4023 130.478L47.4558 129.425" stroke="#263238" stroke-linecap="round" stroke-linejoin="round"/>
<path d="M69.0558 134.114H77.474C78.3286 134.114 79.0215 133.421 79.0215 132.566V128.996C79.0215 128.141 78.3286 127.448 77.474 127.448H69.0558C68.2011 127.448 67.5083 128.141 67.5083 128.996V132.566C67.5083 133.421 68.2011 134.114 69.0558 134.114Z" stroke="#263238" stroke-linecap="round" stroke-linejoin="round"/>
<path d="M71.5352 132.137V131.662C71.5352 131.009 72.0619 130.483 72.7144 130.483H74.6628" stroke="#263238" stroke-linecap="round" stroke-linejoin="round"/>
<path d="M73.9395 131.536L74.9929 130.478L73.9395 129.425" stroke="#263238" stroke-linecap="round" stroke-linejoin="round"/>
<path d="M87.8869 16.2713V27.933H8.90234V16.276C8.90234 15.6561 9.40576 15.1527 10.0257 15.1527H34.2874C34.9446 15.1527 35.476 15.6841 35.476 16.3412V19.0632C35.476 19.7204 36.0074 20.2518 36.6646 20.2518H60.1292C60.7865 20.2518 61.3179 19.7204 61.3179 19.0632V16.3412C61.3179 15.6841 61.8492 15.1527 62.5065 15.1527H86.7682C87.3881 15.1527 87.8869 15.6514 87.8869 16.2713Z" fill="#FF5A60" stroke="#263238" stroke-linecap="round" stroke-linejoin="round"/>
<path d="M111.441 67.3877V68.5529" stroke="#263238" stroke-linecap="round" stroke-linejoin="round"/>
<path d="M111.441 70.8181V110.459" stroke="#263238" stroke-linecap="round" stroke-linejoin="round"/>
<path d="M111.441 111.592V112.757H110.275" stroke="#263238" stroke-linecap="round" stroke-linejoin="round"/>
<path d="M108.08 112.757H82.8398" stroke="#263238" stroke-linecap="round" stroke-linejoin="round"/>
<path d="M81.7395 112.757H80.5742" stroke="#263238" stroke-linecap="round" stroke-linejoin="round"/>
<path d="M166.75 181.538C166.75 181.538 166.871 185.113 165.645 186.344C164.414 187.574 164.909 190.767 164.909 190.767H176.035L176.343 187.411L174.497 180.713L166.75 181.534V181.538Z" fill="#757575" stroke="#263238" stroke-linecap="round" stroke-linejoin="round"/>
<path d="M139.459 180.718C139.459 180.718 140.69 183.953 136.141 185.519C131.591 187.085 128.888 187.085 128.52 189.662V190.767H138.238L141.305 189.784L142.289 190.767H147.696L148.311 188.8L147.449 182.359L139.459 180.718Z" fill="#757575" stroke="#263238" stroke-linecap="round" stroke-linejoin="round"/>
<path d="M140.26 92.4821L137.957 105.211C137.957 105.211 136.624 124.209 136.783 132.133C136.941 140.061 139.705 175.913 139.523 177.348C139.337 178.784 137.869 180.345 137.957 180.578C138.046 180.811 138.512 182.643 138.512 182.643L147.653 183.939L148.92 181.538C148.92 181.538 147.303 179.483 147.653 178.854C147.998 178.229 148.739 175.88 148.92 175.027C149.107 174.174 150.892 125.547 150.892 125.547C150.892 125.547 163.487 173.671 163.487 175.489C163.487 177.306 165.514 179.357 165.514 179.357L164.801 183.025L166.437 184.806C166.437 184.806 171.168 182.657 175.844 184.806L175.597 181.17L174.184 179.357L174.553 176.817C174.553 176.817 172.655 157.101 170.563 147.751C168.47 138.406 167.127 107.206 166.549 104.955C165.971 102.704 164.065 91.2656 164.065 91.2656L140.255 92.4868L140.26 92.4821Z" fill="#263238"/>
<path d="M126.603 25.2762H96.2773C94.7456 25.2762 93.5039 26.5179 93.5039 28.0495V63.3001C93.5039 64.8317 94.7456 66.0733 96.2773 66.0733H126.603C128.135 66.0733 129.377 64.8317 129.377 63.3001V28.0495C129.377 26.5179 128.135 25.2762 126.603 25.2762Z" fill="#FF5A60" stroke="#263238" stroke-linecap="round" stroke-linejoin="round"/>
<path d="M119.235 34.2252H101.35V59.8277H119.235V34.2252Z" fill="white"/>
<mask id="mask0_55_2276" style="mask-type:luminance" maskUnits="userSpaceOnUse" x="101" y="34" width="19" height="26">
<path d="M119.235 34.2252H101.35V59.8277H119.235V34.2252Z" fill="white"/>
</mask>
<g mask="url(#mask0_55_2276)">
<path opacity="0.4" d="M119.235 34.2252H101.35V59.8277H119.235V34.2252Z" fill="#FF5A60"/>
</g>
<path d="M119.235 34.2252H101.35V59.8277H119.235V34.2252Z" stroke="#263238" stroke-linecap="round" stroke-linejoin="round"/>
<path d="M118.652 30.6161L101.113 34.1173L106.126 59.2243L123.665 55.7231L118.652 30.6161Z" fill="white" stroke="#263238" stroke-linecap="round" stroke-linejoin="round"/>
<path d="M102.426 33.7266C102.687 33.0973 103.307 32.6545 104.029 32.6545C104.985 32.6545 105.763 33.4283 105.763 34.3884V37.996C105.763 38.6345 105.246 39.1519 104.607 39.1519C103.969 39.1519 103.451 38.6345 103.451 37.996V34.5702C103.451 34.2719 103.694 34.0295 103.992 34.0295C104.29 34.0295 104.533 34.2719 104.533 34.5702V36.4112" stroke="#263238" stroke-linecap="round" stroke-linejoin="round"/>
<path d="M130.103 72.7617C130.113 75.2693 126.37 76.0104 126.37 76.0104C119.546 69.7508 118.007 62.0603 114.689 60.8391C114.386 60.7272 114.111 60.5501 113.873 60.3404C112.875 59.4548 112.391 57.968 112.391 57.968L116.805 57.0871C117.015 55.9218 117.541 54.463 117.993 53.8291C118.315 53.377 117.849 52.3189 117.304 51.1351C116.945 50.366 117.532 49.6669 117.532 49.6669C117.532 49.6669 119.238 51.0046 119.914 52.813C120.59 54.6168 119.909 58.8582 121.904 60.9603C125.47 64.717 126.006 64.5026 129.381 67.3924C129.381 67.3924 130.094 70.3334 130.103 72.7617Z" fill="white"/>
<mask id="mask1_55_2276" style="mask-type:luminance" maskUnits="userSpaceOnUse" x="112" y="49" width="19" height="28">
<path d="M130.103 72.7617C130.113 75.2693 126.37 76.0104 126.37 76.0104C119.546 69.7508 118.007 62.0603 114.689 60.8391C114.386 60.7272 114.111 60.5501 113.873 60.3404C112.875 59.4548 112.391 57.968 112.391 57.968L116.805 57.0871C117.015 55.9218 117.541 54.463 117.993 53.8291C118.315 53.377 117.849 52.3189 117.304 51.1351C116.945 50.366 117.532 49.6669 117.532 49.6669C117.532 49.6669 119.238 51.0046 119.914 52.813C120.59 54.6168 119.909 58.8582 121.904 60.9603C125.47 64.717 126.006 64.5026 129.381 67.3924C129.381 67.3924 130.094 70.3334 130.103 72.7617Z" fill="white"/>
</mask>
<g mask="url(#mask1_55_2276)">
<path opacity="0.4" d="M113.873 60.3404C112.875 59.4548 112.391 57.968 112.391 57.968L116.805 57.087C116.805 57.087 116.581 58.3362 116.805 59.1891C116.945 59.7344 115.215 59.7391 113.873 60.3404Z" fill="#FF5A60"/>
</g>
<path d="M130.103 72.7617C130.113 75.2693 126.37 76.0104 126.37 76.0104C119.546 69.7508 118.007 62.0603 114.689 60.8391C114.386 60.7272 114.111 60.5501 113.873 60.3404C112.875 59.4548 112.391 57.968 112.391 57.968L116.805 57.0871C117.015 55.9218 117.541 54.463 117.993 53.8291C118.315 53.377 117.849 52.3189 117.304 51.1351C116.945 50.366 117.532 49.6669 117.532 49.6669C117.532 49.6669 119.238 51.0046 119.914 52.813C120.59 54.6168 119.909 58.8582 121.904 60.9603C125.47 64.717 126.006 64.5026 129.381 67.3924C129.381 67.3924 130.094 70.3334 130.103 72.7617Z" stroke="#263238" stroke-linecap="round" stroke-linejoin="round"/>
<path d="M142.41 53.8291V70.1796C142.41 70.1796 140.284 72.277 137.977 74.4863C135.511 76.8494 132.84 79.3383 132.332 79.5388C131.348 79.921 129.381 78.4155 129.381 78.4155C128.277 79.1519 127.167 77.5858 127.167 77.5858C126.063 78.7184 124.953 76.8168 126.31 74.8499C127.661 72.883 129.381 67.3924 129.381 67.3924C130.118 66.8144 130.612 67.3924 130.612 67.3924C130.612 67.3924 139.091 55.4278 142.41 53.8291Z" fill="#FF5A60"/>
<mask id="mask2_55_2276" style="mask-type:luminance" maskUnits="userSpaceOnUse" x="125" y="53" width="18" height="27">
<path d="M142.41 53.8291V70.1796C142.41 70.1796 140.284 72.277 137.977 74.4863C135.511 76.8494 132.84 79.3383 132.332 79.5388C131.348 79.921 129.381 78.4155 129.381 78.4155C128.277 79.1519 127.167 77.5858 127.167 77.5858C126.063 78.7184 124.953 76.8168 126.31 74.8499C127.661 72.883 129.381 67.3924 129.381 67.3924C130.118 66.8144 130.612 67.3924 130.612 67.3924C130.612 67.3924 139.091 55.4278 142.41 53.8291Z" fill="white"/>
</mask>
<g mask="url(#mask2_55_2276)">
<path opacity="0.2" d="M142.409 60.8252V70.1797C142.409 70.1797 140.284 72.2771 137.977 74.4864C136.923 73.3631 136.159 71.8017 136.019 70.8136C135.744 68.8653 138.047 70.2729 138.047 70.2729C136.387 68.6043 138.326 60.9604 138.424 62.2514C138.508 63.3001 138.778 65.5793 138.876 66.4043C138.666 63.4679 141.612 61.1561 142.409 60.8252Z" fill="black"/>
</g>
<path d="M142.41 53.8291V70.1796C142.41 70.1796 140.284 72.277 137.977 74.4863C135.511 76.8494 132.84 79.3383 132.332 79.5388C131.348 79.921 129.381 78.4155 129.381 78.4155C128.277 79.1519 127.167 77.5858 127.167 77.5858C126.063 78.7184 124.953 76.8168 126.31 74.8499C127.661 72.883 129.381 67.3924 129.381 67.3924C130.118 66.8144 130.612 67.3924 130.612 67.3924C130.612 67.3924 139.091 55.4278 142.41 53.8291Z" stroke="#263238" stroke-linecap="round" stroke-linejoin="round"/>
<path d="M165.03 92.4401C165.939 93.9176 140.913 94.5515 139.188 93.3723C138.96 93.2185 138.792 93.0367 138.675 92.8456C137.892 91.5732 139.188 89.6809 139.188 89.6809C139.188 89.6809 138.969 63.6589 142.409 53.829C142.409 53.829 146.627 53.3024 152.407 53.3863C154.64 53.4189 157.11 53.5447 159.665 53.829C161.511 54.0341 163.795 54.4163 166.046 54.8358C169.808 55.5443 173.485 56.3739 174.944 56.7048C175.364 56.8027 175.602 56.8586 175.602 56.8586C175.602 56.8586 164.121 90.9673 165.03 92.4401Z" fill="#FF5A60"/>
<mask id="mask3_55_2276" style="mask-type:luminance" maskUnits="userSpaceOnUse" x="138" y="53" width="38" height="41">
<path d="M165.03 92.4401C165.939 93.9176 140.913 94.5515 139.188 93.3723C138.96 93.2185 138.792 93.0367 138.675 92.8456C137.892 91.5732 139.188 89.6809 139.188 89.6809C139.188 89.6809 138.969 63.6589 142.409 53.829C142.409 53.829 146.627 53.3024 152.407 53.3863C154.64 53.4189 157.11 53.5447 159.665 53.829C161.511 54.0341 163.795 54.4163 166.046 54.8358C169.808 55.5443 173.485 56.3739 174.944 56.7048C175.364 56.8027 175.602 56.8586 175.602 56.8586C175.602 56.8586 164.121 90.9673 165.03 92.4401Z" fill="white"/>
</mask>
<g mask="url(#mask3_55_2276)">
<path opacity="0.2" d="M150.67 59.1891C150.67 59.1891 148.997 56.3599 151.784 53.829C151.938 53.6892 152.148 53.54 152.409 53.3862C154.641 53.4189 157.112 53.5447 159.666 53.829C161.512 54.0341 163.796 54.4163 166.047 54.8358L156.03 60.1306L153.951 58.0099L150.67 59.1891Z" fill="black"/>
<path opacity="0.2" d="M165.03 92.4401C165.939 93.9176 140.913 94.5515 139.189 93.3723C138.96 93.2185 138.792 93.0367 138.676 92.8456C143.645 93.7499 155.908 92.6126 159.255 91.2656C163.217 89.6715 165.524 82.4425 164.261 83.1789C163.003 83.9153 158.794 83.4585 161.973 81.8878C165.152 80.3217 168.685 75.1714 168.685 75.1714C168.685 75.1714 166.447 68.7067 167.184 67.3923C167.72 66.4275 168.41 68.2127 168.741 69.2427C168.177 66.586 170.19 63.9339 170.19 63.9339L174.945 56.7048C175.364 56.8027 175.602 56.8586 175.602 56.8586C175.602 56.8586 164.121 90.9673 165.03 92.4401Z" fill="black"/>
</g>
<path d="M165.03 92.4401C165.939 93.9176 140.913 94.5515 139.188 93.3723C138.96 93.2185 138.792 93.0367 138.675 92.8456C137.892 91.5732 139.188 89.6809 139.188 89.6809C139.188 89.6809 138.969 63.6589 142.409 53.829C142.409 53.829 146.627 53.3024 152.407 53.3863C154.64 53.4189 157.11 53.5447 159.665 53.829C161.511 54.0341 163.795 54.4163 166.046 54.8358C169.808 55.5443 173.485 56.3739 174.944 56.7048C175.364 56.8027 175.602 56.8586 175.602 56.8586C175.602 56.8586 164.121 90.9673 165.03 92.4401Z" stroke="#263238" stroke-linecap="round" stroke-linejoin="round"/>
<path d="M163.632 54.2578C163.632 54.2578 154.323 57.9866 151.266 54.09C151.266 54.09 152.939 54.2578 153.946 52.8083C154.337 52.2536 154.631 51.4613 154.696 50.3287C154.743 49.6389 154.696 48.8232 154.538 47.8584C154.179 45.6771 163.362 47.0847 163.362 47.0847C163.362 47.0847 161.385 53.1579 163.632 54.2578Z" fill="white" stroke="#263238" stroke-linecap="round" stroke-linejoin="round"/>
<path d="M158.112 49.4618C158.112 49.4618 156.509 52.2257 153.945 52.8083C154.337 52.2537 154.631 51.4613 154.696 50.3287C156.43 49.8253 158.112 49.4618 158.112 49.4618Z" fill="#263238"/>
<path d="M163.363 46.5859C165.959 42.7407 169.916 27.5647 157.149 30.5291C150.801 32.0019 151.626 40.3217 151.626 40.3217L149.439 43.0297L151.248 44.5631L151.173 46.3669L151.789 46.5859C151.789 46.5859 151.248 50.9719 151.789 51.2469C152.777 51.7502 159.27 50.9579 159.27 49.3825" fill="white"/>
<path d="M163.363 46.5859C165.959 42.7407 169.916 27.5647 157.149 30.5291C150.801 32.0019 151.626 40.3217 151.626 40.3217L149.439 43.0297L151.248 44.5631L151.173 46.3669L151.789 46.5859C151.789 46.5859 151.248 50.9719 151.789 51.2469C152.777 51.7502 159.27 50.9579 159.27 49.3825" stroke="#263238" stroke-linecap="round" stroke-linejoin="round"/>
<path d="M151.783 46.5861C151.783 46.5861 153.61 46.8238 154.995 46.642C154.995 46.642 154.296 48.0682 152.506 47.5928" stroke="#263238" stroke-linecap="round" stroke-linejoin="round"/>
<path d="M152.703 36.9892C152.703 36.9892 154.866 36.7748 155.896 38.2337" stroke="#263238" stroke-linecap="round" stroke-linejoin="round"/>
<path d="M154.002 40.3125C154.002 40.7459 153.825 41.0955 153.61 41.0955C153.396 41.0955 153.219 40.7459 153.219 40.3125C153.219 39.879 153.396 39.5294 153.61 39.5294C153.825 39.5294 154.002 39.879 154.002 40.3125Z" fill="#263238"/>
<path d="M167.31 32.8409C165.254 30.7202 156.454 27.6114 153.951 28.8931C150.278 30.2914 151.271 34.2998 151.271 34.2998L151.788 32.9062C151.788 32.9062 152.058 34.0854 153.951 34.8032V33.9176C153.951 33.9176 155.424 34.6354 157.745 34.5096L157.344 33.913C158.221 34.1134 158.803 34.3464 158.803 34.3464C157.396 36.9565 158.985 38.8023 158.985 38.8023L158.971 42.3352C158.971 42.3352 160.822 44.1577 161.362 45.9941C161.903 47.8305 163.367 48.0589 163.367 48.0589C167.427 45.5792 169.477 35.0642 167.315 32.8363L167.31 32.8409Z" fill="#263238"/>
<path d="M158.543 42.8619C158.543 42.8619 160.543 40.1679 161.573 40.5967C162.603 41.0255 162.873 43.5144 162.328 44.647C161.787 45.7843 159.839 48.1054 159.405 47.2431" fill="white"/>
<path d="M158.543 42.8619C158.543 42.8619 160.543 40.1679 161.573 40.5967C162.603 41.0255 162.873 43.5144 162.328 44.647C161.787 45.7843 159.839 48.1054 159.405 47.2431" stroke="#263238" stroke-linecap="round" stroke-linejoin="round"/>
<path d="M130.607 67.3877C130.607 67.3877 132.08 71.6524 130.607 76.8167" stroke="#263238" stroke-linecap="round" stroke-linejoin="round"/>
<path d="M127.168 77.5811C127.168 77.5811 129.014 74.724 129.382 72.7571" stroke="#263238" stroke-linecap="round" stroke-linejoin="round"/>
<path d="M151.782 55.8705L152.701 59.1891C152.701 59.1891 147.205 77.5578 146.59 82.8433L147.82 84.7263L150.156 82.9691C150.156 82.9691 152.458 64.8801 153.95 59.837L156.784 56.0057L154.999 55.8333L151.787 55.8799L151.782 55.8705Z" fill="#263238"/>
<path d="M153.214 52.8083L154.296 55.0596L163.627 52.8083L166.042 54.8359L155.89 59.1892L154.296 56.0011L151.261 58.1358C151.261 58.1358 149.019 53.1439 153.21 52.813L153.214 52.8083Z" fill="#FF5A60" stroke="#263238" stroke-linecap="round" stroke-linejoin="round"/>
<path d="M174.834 83.9153C174.834 83.9153 170.96 87.3271 168.471 91.5685C165.982 95.81 162.202 100.051 160.268 101.156C160.268 101.156 160.454 104.936 162.85 107.057C162.85 107.057 178.614 93.0647 180.553 88.7114C182.492 84.3534 174.839 83.9153 174.839 83.9153H174.834Z" fill="white" stroke="#263238" stroke-linecap="round" stroke-linejoin="round"/>
<path d="M175.603 56.8586C178.553 58.2569 182.609 83.1975 182.711 86.6513C182.744 87.7559 180.521 90.147 180.521 90.147C180.521 90.147 180.558 92.291 179.187 92.4821C179.187 92.4821 175.113 88.2873 171.669 86.6699C171.669 86.6699 171.179 85.1178 172.899 85.0852L170.229 73.4189C167.367 63.8174 173.389 58.9514 173.389 58.9514" fill="#FF5A60"/>
<path d="M175.603 56.8586C178.553 58.2569 182.609 83.1975 182.711 86.6513C182.744 87.7559 180.521 90.147 180.521 90.147C180.521 90.147 180.558 92.291 179.187 92.4821C179.187 92.4821 175.113 88.2873 171.669 86.6699C171.669 86.6699 171.179 85.1178 172.899 85.0852L170.229 73.4189C167.367 63.8174 173.389 58.9514 173.389 58.9514" stroke="#263238" stroke-linecap="round" stroke-linejoin="round"/>
<path d="M172.898 85.0852C172.898 85.0852 176.954 85.3928 179.168 88.7114" stroke="#263238" stroke-linecap="round" stroke-linejoin="round"/>
<path d="M154.519 96.8028C156.938 96.7049 159.474 96.4579 161.972 95.9825L161.777 93.7452C160.117 93.9969 157.549 94.3092 154.281 94.4537C154.351 95.0876 154.458 96.099 154.524 96.8028H154.519Z" fill="#757575" stroke="#263238" stroke-linecap="round" stroke-linejoin="round"/>
<path d="M162.886 95.796C163.347 95.6982 163.804 95.5956 164.261 95.4791L163.921 93.363C163.921 93.363 163.482 93.4609 162.662 93.6007L162.886 95.796Z" fill="#757575" stroke="#263238" stroke-linecap="round" stroke-linejoin="round"/>
<path d="M153.228 94.4956C150.095 94.5982 146.39 94.5422 142.264 94.16L141.994 96.1829C144.227 96.4905 148.473 96.9426 153.335 96.8401L153.223 94.4956H153.228Z" fill="#757575" stroke="#263238" stroke-linecap="round" stroke-linejoin="round"/>
<path d="M141.514 94.0902C141.197 94.0576 140.884 94.0249 140.567 93.9923L140.32 95.9266C140.32 95.9266 140.656 95.9872 141.253 96.0757L141.514 94.0902Z" fill="#757575" stroke="#263238" stroke-linecap="round" stroke-linejoin="round"/>
<path d="M148.833 97.0032L144.777 96.8587L145.085 94.2812L149.14 94.4257L148.833 97.0032Z" fill="#BFBFBF" stroke="#263238" stroke-linecap="round" stroke-linejoin="round"/>
<path d="M129.008 189.784H137.678L141.733 188.926L143.453 189.784H147.019" stroke="#263238" stroke-linecap="round" stroke-linejoin="round"/>
<path d="M165.398 189.784H175.173" stroke="#263238" stroke-linecap="round" stroke-linejoin="round"/>
<path d="M166.629 185.743C166.629 185.743 170.861 184.027 173.453 185.174" stroke="#263238" stroke-linecap="round" stroke-linejoin="round"/>
<path d="M157.446 65.3741L164.261 66.0733L162.662 73.2231L159.068 73.6799L156.029 71.7456L156.78 66.0733" stroke="#263238" stroke-linecap="round" stroke-linejoin="round"/>
<path d="M174.372 66.0734C174.372 66.0734 171.449 67.2153 171.146 71.6572" stroke="#263238" stroke-linecap="round" stroke-linejoin="round"/>
<path d="M138.047 63.5425C138.047 63.5425 138.378 68.2826 139.781 70.8461" stroke="#263238" stroke-linecap="round" stroke-linejoin="round"/>
<path d="M140.918 90.0724C140.918 90.0724 152.813 89.1682 156.309 85.9429" stroke="#263238" stroke-linecap="round" stroke-linejoin="round"/>
<path d="M167.828 68.8652C167.828 68.8652 168.574 71.8389 170.047 72.7618" stroke="#263238" stroke-linecap="round" stroke-linejoin="round"/>
<g opacity="0.2">
<path d="M146.068 100.103C146.068 100.103 145.914 108.758 146.59 109.844C147.266 110.93 147.667 111.135 147.667 111.135" stroke="white" stroke-linecap="round" stroke-linejoin="round"/>
<path d="M147.668 99.5807C147.668 99.5807 147.696 112.589 149.141 116.924" stroke="white" stroke-linecap="round" stroke-linejoin="round"/>
<path d="M159.25 98.6671C159.25 98.6671 159.404 105.542 164.261 108.558" stroke="white" stroke-linecap="round" stroke-linejoin="round"/>
<path d="M165.705 106.362C165.705 106.362 165.892 113.512 165.705 114.985C165.519 116.458 166.721 123.407 166.721 126.297C166.721 129.187 167.737 133.703 167.737 134.715" stroke="white" stroke-linecap="round" stroke-linejoin="round"/>
<path d="M149.568 119.143C149.568 119.143 156.625 121.426 158.122 121.156" stroke="white" stroke-linecap="round" stroke-linejoin="round"/>
<path d="M149.57 120.69C148.833 120.056 143.207 122.876 142.471 122.573" stroke="white" stroke-linecap="round" stroke-linejoin="round"/>
<path d="M149.569 122.596C149.383 122.913 143.854 130.604 143.113 129.755" stroke="white" stroke-linecap="round" stroke-linejoin="round"/>
<path d="M150.492 121.594C150.492 121.594 156.351 127.43 158.123 128.078" stroke="white" stroke-linecap="round" stroke-linejoin="round"/>
<path d="M166.629 178.579C166.629 178.579 170.871 174.691 171.332 173.876C171.794 173.065 167.277 172.142 167.277 172.142" stroke="white" stroke-linecap="round" stroke-linejoin="round"/>
<path d="M167.734 180.718C167.734 180.718 170.871 179.609 172.899 180.578" stroke="white" stroke-linecap="round" stroke-linejoin="round"/>
<path d="M141.459 176.602C141.459 176.602 145.514 174.109 145.426 172.617" stroke="white" stroke-linecap="round" stroke-linejoin="round"/>
<path d="M147.019 177.586C147.019 177.586 142.288 180.196 140.904 180.182C139.519 180.168 144.684 182.102 145.975 181.827" stroke="white" stroke-linecap="round" stroke-linejoin="round"/>
</g>
<path d="M107.535 51.1817L114.508 49.7881" stroke="#263238" stroke-linecap="round" stroke-linejoin="round"/>
<path d="M107.203 49.4059L119.346 46.9822" stroke="#263238" stroke-linecap="round" stroke-linejoin="round"/>
<path d="M106.873 47.6253L119.016 45.2017" stroke="#263238" stroke-linecap="round" stroke-linejoin="round"/>
<path d="M106.541 45.8496L118.684 43.4259" stroke="#263238" stroke-linecap="round" stroke-linejoin="round"/>
<path d="M106.211 44.0738L118.353 41.6501" stroke="#263238" stroke-linecap="round" stroke-linejoin="round"/>
<path d="M105.879 42.2979L118.021 39.8743" stroke="#263238" stroke-linecap="round" stroke-linejoin="round"/>
<path d="M105.549 40.5174L117.691 38.0938" stroke="#263238" stroke-linecap="round" stroke-linejoin="round"/>
<path d="M108.457 38.0938L117.36 36.318" stroke="#263238" stroke-linecap="round" stroke-linejoin="round"/>
<path d="M0.232422 190.767H195.766" stroke="#263238" stroke-linecap="round" stroke-linejoin="round"/>
</g>
<defs>
<clipPath id="clip0_55_2276">
<rect width="196" height="191" fill="white"/>
</clipPath>
</defs>
</svg>
