<svg width="17" height="17" viewBox="0 0 17 17" fill="none" xmlns="http://www.w3.org/2000/svg">
<path d="M1.75095 7.49941C1.4194 7.50034 1.09489 7.59511 0.814967 7.77278C0.53504 7.95044 0.311133 8.20373 0.169152 8.50334C0.0271704 8.80294 -0.0270837 9.13663 0.0126663 9.46578C0.0524163 9.79494 0.184546 10.1061 0.393769 10.3633L4.85391 15.827C5.01294 16.0244 5.21678 16.1811 5.44851 16.284C5.68025 16.3868 5.93318 16.4329 6.1863 16.4184C6.72766 16.3893 7.21642 16.0997 7.52804 15.6236L16.7929 0.702539C16.7944 0.700064 16.796 0.697589 16.7976 0.695151C16.8845 0.561675 16.8564 0.297162 16.6769 0.130992C16.6276 0.08536 16.5695 0.0503017 16.5062 0.0279764C16.4428 0.00565115 16.3756 -0.0034684 16.3086 0.00117961C16.2415 0.00582762 16.1762 0.0241448 16.1165 0.0550028C16.0569 0.0858608 16.0042 0.128606 15.9616 0.180607C15.9583 0.184695 15.9549 0.188722 15.9514 0.192687L6.60764 10.7497C6.57208 10.7899 6.5289 10.8226 6.4806 10.8459C6.4323 10.8693 6.37984 10.8828 6.32627 10.8857C6.2727 10.8886 6.21909 10.8808 6.16855 10.8628C6.11802 10.8448 6.07156 10.8169 6.03188 10.7808L2.93087 7.9589C2.60881 7.66367 2.18786 7.49974 1.75095 7.49941Z" fill="white"/>
</svg>
