<svg width="36" height="36" viewBox="0 0 36 36" fill="none" xmlns="http://www.w3.org/2000/svg">
<path d="M31.2 13.2575C30.7994 12.8535 30.5737 12.3083 30.5715 11.7395V9.82246C30.5699 8.65706 30.1062 7.53987 29.282 6.71595C28.4578 5.89203 27.3404 5.42865 26.175 5.42746H24.261C23.9791 5.4282 23.6999 5.37318 23.4394 5.26557C23.1789 5.15797 22.9422 4.9999 22.743 4.80046L21.108 3.16396C20.283 2.34104 19.1653 1.87891 18 1.87891C16.8347 1.87891 15.717 2.34104 14.892 3.16396L13.257 4.80046C13.0579 5.00017 12.8213 5.15851 12.5608 5.26638C12.3003 5.37425 12.021 5.4295 11.739 5.42896H9.8235C8.6581 5.43015 7.54076 5.89353 6.71655 6.71745C5.89235 7.54137 5.42859 8.65856 5.427 9.82396V11.7395C5.42548 12.3077 5.20023 12.8525 4.8 13.256L3.162 14.8925C2.33909 15.7175 1.87695 16.8352 1.87695 18.0005C1.87695 19.1657 2.33909 20.2834 3.162 21.1085L4.8 22.7435C5.20059 23.1474 5.42633 23.6926 5.4285 24.2615V26.1785C5.43009 27.3439 5.89385 28.461 6.71805 29.285C7.54226 30.1089 8.65961 30.5723 9.82501 30.5735H11.739C12.021 30.5729 12.3003 30.6282 12.5608 30.736C12.8213 30.8439 13.0579 31.0023 13.257 31.202L14.892 32.8385C15.7168 33.6617 16.8346 34.1241 18 34.1241C19.1654 34.1241 20.2832 33.6617 21.108 32.8385L22.743 31.202C22.9421 31.0023 23.1787 30.8439 23.4392 30.736C23.6997 30.6282 23.979 30.5729 24.261 30.5735H26.1765C27.3419 30.5723 28.4593 30.1089 29.2835 29.285C30.1077 28.461 30.5714 27.3439 30.573 26.1785V24.2615C30.5743 23.6928 30.8002 23.1478 31.2015 22.745L32.838 21.1085C33.6609 20.2834 34.1231 19.1657 34.1231 18.0005C34.1231 16.8352 33.6609 15.7175 32.838 14.8925L31.2 13.2575Z" fill="#889DB7"/>
<path d="M18 28.125C23.5919 28.125 28.125 23.5919 28.125 18C28.125 12.4081 23.5919 7.875 18 7.875C12.4081 7.875 7.875 12.4081 7.875 18C7.875 23.5919 12.4081 28.125 18 28.125Z" fill="#8391A1"/>
<path d="M16.5003 22.1253C16.3525 22.1256 16.2061 22.0966 16.0697 22.04C15.9332 21.9833 15.8093 21.9002 15.7053 21.7953L12.7053 18.7953C12.5065 18.582 12.3984 18.2999 12.4035 18.0085C12.4086 17.717 12.5267 17.4389 12.7328 17.2328C12.9389 17.0267 13.217 16.9086 13.5085 16.9035C13.7999 16.8984 14.082 17.0065 14.2953 17.2053L16.5003 19.4088L21.7053 14.2053C21.9185 14.0065 22.2006 13.8984 22.492 13.9035C22.7835 13.9086 23.0616 14.0267 23.2677 14.2328C23.4738 14.4389 23.5919 14.717 23.597 15.0085C23.6022 15.2999 23.494 15.582 23.2953 15.7953L17.2953 21.7953C17.1912 21.9002 17.0673 21.9833 16.9309 22.04C16.7944 22.0966 16.648 22.1256 16.5003 22.1253Z" fill="#263238"/>
</svg>
