<svg width="20" height="20" viewBox="0 0 20 20" fill="none" xmlns="http://www.w3.org/2000/svg">
<g clip-path="url(#clip0_1705_1327)">
<path d="M19.8284 13.7263L18.2793 12.1771V6.86341L19.2906 6.4988C19.5228 6.41506 19.6776 6.19488 19.6778 5.94803C19.678 5.70126 19.5235 5.48077 19.2914 5.39676L10.0384 2.04575C9.90952 1.99907 9.76825 1.99907 9.63939 2.04575L0.386412 5.39676C0.155223 5.4805 0.000941019 5.69962 3.60846e-06 5.94549C-0.000855684 6.19137 0.151825 6.41162 0.38235 6.49704L3.79722 7.76204V11.6232C3.79722 11.7431 3.83393 11.86 3.90248 11.9583C3.94017 12.0124 4.29721 12.4999 5.21134 12.9601C6.36619 13.5414 7.88089 13.8362 9.71329 13.8362C11.5444 13.8362 13.0667 13.542 14.2381 12.9618C15.1612 12.5046 15.5301 12.0221 15.5692 11.9686C15.6423 11.8683 15.6817 11.7474 15.6817 11.6233V7.79985L17.1075 7.28579V12.1771L15.5584 13.7263C15.4485 13.8361 15.3868 13.9852 15.3868 14.1405C15.3868 14.2959 15.4485 14.445 15.5584 14.5548L17.1075 16.1039V17.4037C17.1075 17.7272 17.3699 17.9895 17.6934 17.9895C18.017 17.9895 18.2793 17.7272 18.2793 17.4037V16.1039L19.8284 14.5548C20.0572 14.3261 20.0572 13.955 19.8284 13.7263ZM9.83891 3.21974L17.3679 5.94639L9.71607 8.70507L2.28928 5.95385L9.83891 3.21974ZM14.5099 11.3897C12.507 13.192 6.55531 12.9853 4.96898 11.3956V8.19614L9.50976 9.87824C9.58182 9.88965 9.64986 9.95179 9.91198 9.88004L14.5099 8.22238L14.5099 11.3897ZM17.6934 15.0327L16.8012 14.1405L17.6934 13.2483L18.5856 14.1405L17.6934 15.0327Z" fill="white"/>
</g>
<defs>
<clipPath id="clip0_1705_1327">
<rect width="20" height="20" fill="white"/>
</clipPath>
</defs>
</svg>
