<svg width="25" height="16" viewBox="0 0 25 16" fill="none" xmlns="http://www.w3.org/2000/svg">
<path d="M1.58481 10.5632C2.67601 5.3232 7.23761 1.6 12.3688 1.6C17.4984 1.6 22.06 5.3232 23.1528 10.5632C23.1961 10.7711 23.3202 10.9533 23.4978 11.0698C23.6755 11.1862 23.8921 11.2273 24.1 11.184C24.3079 11.1407 24.4902 11.0166 24.6066 10.839C24.723 10.6613 24.7641 10.4447 24.7208 10.2368C23.4776 4.2768 18.2776 0 12.3688 0C6.46001 0 1.26001 4.2768 0.0168091 10.2368C-0.0264742 10.4447 0.014615 10.6613 0.131038 10.839C0.24746 11.0166 0.429679 11.1407 0.637609 11.184C0.845539 11.2273 1.06215 11.1862 1.23978 11.0698C1.41742 10.9533 1.54153 10.7711 1.58481 10.5632ZM12.3528 4.8C13.838 4.8 15.2624 5.39 16.3126 6.4402C17.3628 7.49041 17.9528 8.91479 17.9528 10.4C17.9528 11.8852 17.3628 13.3096 16.3126 14.3598C15.2624 15.41 13.838 16 12.3528 16C10.8676 16 9.44322 15.41 8.39301 14.3598C7.34281 13.3096 6.75281 11.8852 6.75281 10.4C6.75281 8.91479 7.34281 7.49041 8.39301 6.4402C9.44322 5.39 10.8676 4.8 12.3528 4.8Z" fill="#6A707C"/>
</svg>
