<svg width="20" height="20" viewBox="0 0 20 20" fill="none" xmlns="http://www.w3.org/2000/svg">
<g clip-path="url(#clip0_1705_1057)">
<path d="M11.0729 6.51348C11.0728 6.51281 11.0728 6.51223 11.0728 6.51156C11.0728 6.51129 11.0728 6.51102 11.0728 6.51074L11.0729 6.51348Z" fill="white"/>
<path d="M19.9864 18.3562L19.4844 13.871C19.3113 12.3451 19.3317 11.9321 18.9849 11.4103C18.3542 10.4611 17.3356 10.4721 15.7946 10.0424V9.95218H17.5512C17.9692 9.95218 18.3099 9.61475 18.315 9.19792L18.5465 5.27526C18.556 5.11378 18.4329 4.9751 18.2713 4.96557C18.1093 4.95569 17.9711 5.07921 17.9616 5.24073C17.7201 9.33647 17.7292 9.17096 17.7292 9.18823C17.7292 9.28475 17.6477 9.36628 17.5512 9.36628H15.7946V9.29046C16.664 8.82069 17.3229 8.02897 17.5241 6.99925C17.6004 6.63053 17.581 6.3551 17.583 5.72604C17.583 5.4021 17.3294 5.13655 17.0056 5.12147C15.0027 5.02788 13.903 3.94737 13.5232 3.48714C13.4201 3.36241 13.2684 3.28788 13.1068 3.28272C12.9446 3.27702 12.7891 3.34214 12.6784 3.45995C12.2955 3.86749 11.8784 4.02425 11.5959 4.08401C11.2912 4.14843 11.0701 4.42014 11.0701 4.73014C11.0712 6.46081 11.0677 6.37757 11.0728 6.51124C11.0922 7.00081 11.2275 7.49624 11.4179 7.84839C11.8152 8.63659 12.3408 8.97628 12.8471 9.28483V9.36651C12.8191 9.36608 11.9312 9.36639 11.1314 9.36628C11.0349 9.36628 10.9534 9.28475 10.9534 9.18823C10.9534 9.17104 10.9632 9.34862 10.7175 5.18046C10.7171 5.17514 10.7166 5.16968 10.716 5.16436C10.7126 5.13393 10.389 2.11635 12.0832 1.74397C12.1685 1.72522 12.24 1.67135 12.2798 1.5937C12.3096 1.53792 13.0346 0.233503 15.3414 0.682683C15.3498 0.684324 15.3676 0.690105 15.3832 0.695222C16.9616 1.21053 17.8561 2.48249 17.9556 3.91143C17.9668 4.07276 18.1059 4.19444 18.2682 4.18327C18.4295 4.17202 18.5512 4.0321 18.54 3.87069C18.4241 2.20546 17.3305 0.722917 15.645 0.164089C15.5609 0.136511 15.5033 0.11741 15.4533 0.107683C13.6374 -0.245911 12.4036 0.36405 11.8341 1.20284C10.9698 1.44831 10.4035 2.21901 10.1929 3.441C10.0424 4.31421 10.1225 5.1246 10.1331 5.22257L10.3677 9.19792C10.3728 9.61468 10.7135 9.95218 11.1315 9.95218C11.5139 9.95214 12.8207 9.95237 12.8471 9.95194V10.0424C10.9743 10.5087 10.5392 10.5449 9.99768 11.0213C9.4062 10.5019 8.88081 10.4978 7.86167 10.2198L7.14932 9.87885V9.28428C8.23116 8.72432 8.92499 7.62155 8.92499 6.38362V6.38073C9.72616 6.20616 10.0985 5.39444 9.66292 4.78389C9.67077 3.52077 9.653 3.52159 9.51956 2.9344C8.84585 0.489206 6.51565 0.0950658 6.51171 0.0929173C4.07065 -0.432005 1.77882 1.38116 1.67788 3.82518C1.67772 3.83061 1.6739 3.91253 1.6739 3.99784C1.67393 4.16843 1.67382 4.7678 1.67401 4.78378C1.55733 4.94725 1.48964 5.14022 1.48964 5.34686C1.48964 5.84577 1.88296 6.26546 2.41202 6.38065C2.41897 6.40764 2.29757 8.27397 4.18018 9.28046L4.20175 9.23671V9.24581L4.18436 9.28253C4.18831 9.28448 4.19948 9.28995 4.20175 9.29108L4.20171 9.87198L3.46003 10.227C2.28784 10.5188 1.84538 10.5651 1.31382 11.0561C0.892568 11.4462 0.740692 11.8746 0.674677 12.4171C-0.0166903 18.6703 -0.00340906 18.3105 0.000848751 18.6C-0.00801844 19.3479 0.514052 19.9986 1.37757 19.9986H3.74296C3.90475 19.9986 4.03589 19.8675 4.03589 19.7057C4.03589 19.5438 3.90479 19.4127 3.74296 19.4127H2.83765L3.12808 13.9187C3.13663 13.7572 3.01261 13.6193 2.851 13.6108C2.69003 13.6012 2.55155 13.7262 2.54304 13.8878L2.48194 15.0434L0.987802 14.8866L1.0039 14.7427C1.30417 12.113 1.19718 11.8828 1.87311 11.3549C2.2278 11.0774 2.80167 11.0132 3.46347 10.8299L4.36397 11.9827C4.57948 12.2584 4.98847 12.2828 5.23511 12.0342L5.37554 11.8927V13.3102C5.37554 13.472 5.50663 13.6032 5.66847 13.6032C5.8303 13.6032 5.9614 13.4721 5.9614 13.3102V11.8927C6.04034 11.9524 6.19975 12.2261 6.54893 12.2051C6.71561 12.1953 6.87015 12.1142 6.97292 11.9826L7.8746 10.8285C8.65823 11.0454 9.15749 11.0598 9.6169 11.4714C9.26022 12.0551 9.34565 12.4717 9.02819 15.0253L8.88097 15.0407L8.81999 13.8879C8.81143 13.7263 8.67339 13.6012 8.51202 13.6108C8.35046 13.6194 8.2264 13.7572 8.23495 13.9188C8.26436 14.4894 8.4871 18.8123 8.51807 19.4128H5.10987C4.94808 19.4128 4.81694 19.5439 4.81694 19.7057C4.81694 19.8675 4.94804 19.9986 5.10987 19.9986C5.53425 19.9986 12.0015 19.9986 12.43 19.9986C12.5918 19.9986 12.7229 19.8675 12.7229 19.7057C12.7229 19.5439 12.5918 19.4128 12.43 19.4128H11.4826L11.7731 13.9188C11.7817 13.7573 11.6576 13.6194 11.496 13.6108C11.3354 13.6012 11.1966 13.7263 11.1881 13.8879L11.127 15.0427L9.63323 14.886C9.91972 12.3355 9.88585 12.0405 10.2212 11.6297C10.6582 11.1087 11.2946 11.0455 11.3773 11.0121C11.4231 11.9546 11.6978 12.9413 12.642 12.9413C13.2904 12.9413 13.9757 12.4287 14.3202 12.13C15.8579 13.4638 17.1568 13.2007 17.2632 11.0119C17.3454 11.0387 17.6725 11.081 18.0203 11.2893C18.4433 11.5434 18.6431 11.8755 18.7201 12.3469C18.7487 12.5298 18.725 12.3694 19.0085 14.886L17.526 15.0416L17.4651 13.888C17.4565 13.7264 17.3169 13.6014 17.1571 13.6109C16.9955 13.6195 16.8715 13.7573 16.88 13.9189L17.1705 19.4129H13.7969C13.6351 19.4129 13.504 19.544 13.504 19.7058C13.504 19.8676 13.6351 19.9987 13.7969 19.9987H18.6188C19.5462 19.9986 20.0951 19.2533 19.9864 18.3562ZM2.43304 15.6273L2.24288 19.4127C1.54987 19.3753 1.12546 19.5202 0.814911 19.2055C0.610185 18.998 0.568232 18.7091 0.592685 18.4174L0.922685 15.4688L2.43304 15.6273ZM8.92495 5.76913V4.92456C9.37237 5.10913 9.37237 5.58452 8.92495 5.76913ZM2.41202 5.76917C1.96444 5.58464 1.96433 5.10905 2.41202 4.92448V5.76917ZM2.6894 4.26788C2.68526 4.27038 2.68624 4.26975 2.66511 4.28245C2.52241 4.28651 2.38593 4.31217 2.25968 4.35593C2.29206 4.15706 2.06643 2.91999 3.12218 1.73186C3.51038 1.30721 3.95823 0.98866 4.52268 0.786628C4.53202 0.786277 6.63593 -0.0608717 8.28073 1.80819C9.26397 2.97999 9.04792 4.22362 9.07714 4.35596C8.95093 4.31221 8.81444 4.28655 8.67183 4.28249C8.38874 4.12018 8.2535 3.81991 8.24186 3.49042C8.2394 3.48018 8.25511 3.17358 7.98569 2.94878C7.65722 2.67464 7.37097 2.81253 6.77413 2.87171C5.20018 3.02417 4.0946 2.80362 3.92253 2.79038C3.51401 2.72682 3.10851 3.02159 3.09507 3.49073C3.0737 4.07475 2.68741 4.26925 2.6894 4.26788ZM2.99784 6.11921V4.766C3.19702 4.60839 3.41827 4.47866 3.58343 4.03456C3.64651 3.86206 3.67608 3.67507 3.68155 3.49065C3.68347 3.41464 3.75472 3.3571 3.83245 3.36928C4.60378 3.47018 5.11085 3.52104 5.8005 3.51292L5.84417 3.51218C8.20487 3.47635 7.39796 2.99464 7.74511 4.01124C7.87905 4.40682 8.14933 4.62507 8.12686 4.60374C8.23718 4.70639 8.3321 4.761 8.33893 4.76592C8.33893 4.81995 8.33905 6.32866 8.33905 6.3835C8.33905 7.77081 7.27472 8.94655 5.84714 9.04741C5.05026 9.10014 4.49686 8.78069 4.44718 8.75897L4.41522 8.82343C4.41393 8.82378 4.41268 8.82409 4.4114 8.82448L4.44362 8.75721C4.40425 8.7346 4.34643 8.70917 4.22097 8.62772C2.81718 7.72112 3.0137 6.19635 2.99784 6.11921ZM4.82268 11.6182L4.03401 10.6086L4.43077 10.4187L5.24878 11.1889L4.82268 11.6182ZM5.66847 10.7793L4.78761 9.95003V9.51878C5.36058 9.67921 5.97018 9.68182 6.55636 9.51678V9.94339L5.66847 10.7793ZM6.51425 11.6182L6.08819 11.1888L6.91093 10.4142L7.30675 10.6037L6.51425 11.6182ZM11.0855 15.6273L10.8953 19.4127C9.9662 19.4117 9.93936 19.4207 9.798 19.388C9.43827 19.3049 9.23964 18.989 9.23214 18.6198C9.23081 18.3362 9.22124 18.6483 9.56815 15.4681L11.0855 15.6273ZM12.087 7.83893C11.8373 7.42346 11.656 7.00823 11.656 6.3835V4.73014C11.656 4.69479 11.6811 4.66475 11.7171 4.65714C12.0773 4.58096 12.6055 4.38417 13.0877 3.87975C13.5318 4.41061 14.7691 5.60343 16.9783 5.70667C16.9889 5.70717 16.9972 5.71569 16.9972 5.72608C16.9964 6.31272 17.0296 6.673 16.8838 7.15628C16.5217 8.35757 15.4642 8.80007 15.5478 8.75909L15.5222 8.77171C15.393 8.83678 15.4405 8.80612 15.3835 8.83128C14.8639 9.06304 14.339 9.05214 14.3222 9.05389C14.308 9.04987 12.921 9.1203 12.087 7.83893ZM15.5444 10.5838C15.5441 10.5837 15.5439 10.5837 15.5436 10.5836C15.5439 10.5837 15.5441 10.5837 15.5444 10.5838ZM12.4555 12.321C12.1566 12.1967 11.9822 11.6839 11.9578 10.8675L12.0904 10.8345C12.4732 11.3823 13.0156 11.7644 13.6283 11.9285C13.239 12.206 12.7596 12.4475 12.4555 12.321ZM12.7213 10.6774C13.1103 10.579 13.1093 10.5845 13.1515 10.5653C13.3224 10.488 13.433 10.2908 13.433 10.0633V9.5151C13.975 9.67167 14.578 9.68882 15.2087 9.51835V10.0632C15.2087 10.341 15.3701 10.5401 15.5403 10.5828C15.5441 10.5837 15.5457 10.5841 15.546 10.5842C15.5658 10.5891 15.6453 10.6089 15.9194 10.6772C15.059 11.6828 13.5812 11.6834 12.7213 10.6774ZM16.1854 12.3209C15.8448 12.4631 15.3089 12.1427 15.0091 11.9262C15.6467 11.7533 16.1785 11.3505 16.5399 10.8317C16.5438 10.8327 16.6918 10.8695 16.6827 10.8673C16.6584 11.6834 16.4842 12.1963 16.1854 12.3209ZM19.1814 19.2055C18.8708 19.5202 18.4488 19.3753 17.7571 19.4127L17.557 15.6272L19.0736 15.4681C19.4306 18.7179 19.4037 18.2901 19.4097 18.6073C19.4117 18.7829 19.3528 19.0317 19.1814 19.2055Z" fill="white"/>
</g>
<defs>
<clipPath id="clip0_1705_1057">
<rect width="20" height="20" fill="white"/>
</clipPath>
</defs>
</svg>
