<svg width="20" height="20" viewBox="0 0 20 20" fill="none" xmlns="http://www.w3.org/2000/svg">
<g clip-path="url(#clip0_25_2331)">
<circle cx="10" cy="10" r="10" fill="white"/>
<path d="M10 0C4.47734 0 0 4.47734 0 10C0 15.5227 4.47734 20 10 20C15.5227 20 20 15.5227 20 10C20 4.47734 15.5227 0 10 0ZM15.6754 9.78984C15.4219 10.4777 15.0445 11.0961 14.6102 11.682C14.043 12.4465 13.391 13.134 12.6984 13.784C11.8625 14.5691 10.9723 15.2891 10.0543 15.9754L10.0301 15.9922L10.0203 15.9992L10 15.9828C9.73242 15.7656 9.46602 15.5508 9.20195 15.334C8.41289 14.6875 7.63945 14.0215 6.91211 13.3063C6.25469 12.6605 5.63477 11.9812 5.11523 11.2172C4.78437 10.7309 4.50469 10.2184 4.31758 9.6582C4.16367 9.19609 4.0832 8.7207 4.11797 8.23555C4.18516 7.35 4.50234 6.57656 5.18594 5.98281C5.6207 5.60586 6.13359 5.39687 6.7 5.31055C6.96554 5.27 7.23472 5.2586 7.50273 5.27656C8.46523 5.34297 9.22695 5.76953 9.77422 6.56563C9.8543 6.68281 9.92539 6.80469 10 6.92734L10.0258 6.96992C10.0258 6.96758 10.0285 6.96445 10.0301 6.96211C10.0711 6.89023 10.1117 6.81602 10.1551 6.74414C10.4586 6.24062 10.8523 5.82969 11.3801 5.55898C11.8766 5.30352 12.4062 5.22148 12.9594 5.27031C13.4422 5.31289 13.9055 5.42656 14.3367 5.65117C15.1961 6.0957 15.7074 6.80078 15.8914 7.74453C16.0281 8.44844 15.9195 9.12695 15.6754 9.78984Z" fill="#FF5A60"/>
</g>
<defs>
<clipPath id="clip0_25_2331">
<rect width="20" height="20" fill="white"/>
</clipPath>
</defs>
</svg>
