<svg width="48" height="48" viewBox="0 0 48 48" fill="none" xmlns="http://www.w3.org/2000/svg">
<rect width="48" height="48" rx="6" fill="#F6F6F6"/>
<path d="M12.75 18.8182H24.9615C25.2984 20.1598 26.5295 21.1576 27.9931 21.1576C29.4567 21.1576 30.6878 20.1598 31.0246 18.8182H35.25C35.6642 18.8182 36 18.4872 36 18.0788C36 17.6705 35.6642 17.3395 35.25 17.3395H31.0246C30.6878 15.9978 29.4567 15 27.993 15C26.5294 15 25.2983 15.9978 24.9615 17.3395H12.75C12.3358 17.3395 12 17.6705 12 18.0788C12 18.4872 12.3358 18.8182 12.75 18.8182ZM27.9931 16.4787C28.8881 16.4787 29.6163 17.1965 29.6163 18.0788C29.6163 18.9611 28.8881 19.6789 27.9931 19.6789C27.0981 19.6789 26.3699 18.9611 26.3699 18.0788C26.3699 17.1965 27.0981 16.4787 27.9931 16.4787ZM12.75 25.213H16.9754C17.3123 26.5547 18.5433 27.5525 20.007 27.5525C21.4706 27.5525 22.7017 26.5547 23.0385 25.213H35.25C35.6642 25.213 36 24.882 36 24.4737C36 24.0654 35.6642 23.7343 35.25 23.7343H23.0385C22.7016 22.3927 21.4705 21.3948 20.0069 21.3948C18.5433 21.3948 17.3122 22.3927 16.9754 23.7343H12.75C12.3358 23.7343 12 24.0654 12 24.4737C12 24.882 12.3358 25.213 12.75 25.213ZM20.0069 22.8735C20.9019 22.8735 21.6301 23.5914 21.6301 24.4737C21.6301 25.356 20.9019 26.0738 20.0069 26.0738C19.1119 26.0738 18.3837 25.356 18.3837 24.4737C18.3837 23.5914 19.1119 22.8735 20.0069 22.8735ZM35.25 30.1292H31.0246C30.6877 28.7875 29.4567 27.7897 27.993 27.7897C26.5294 27.7897 25.2983 28.7875 24.9615 30.1292H12.75C12.3358 30.1292 12 30.4602 12 30.8685C12 31.2768 12.3358 31.6079 12.75 31.6079H24.9615C25.2984 32.9495 26.5295 33.9474 27.9931 33.9474C29.4567 33.9474 30.6878 32.9495 31.0246 31.6079H35.25C35.6642 31.6079 36 31.2768 36 30.8685C36 30.4602 35.6642 30.1292 35.25 30.1292ZM27.9931 32.4687C27.0981 32.4687 26.3699 31.7508 26.3699 30.8685C26.3699 29.9862 27.0981 29.2684 27.9931 29.2684C28.8881 29.2684 29.6163 29.9862 29.6163 30.8685C29.6163 31.7508 28.8881 32.4687 27.9931 32.4687Z" fill="#6A707C"/>
</svg>
