<svg width="32" height="32" viewBox="0 0 32 32" fill="none" xmlns="http://www.w3.org/2000/svg">
<g clip-path="url(#clip0_1701_631)">
<path d="M28.2467 15.6719C28.2377 15.6913 28.2287 15.7107 28.2195 15.73C27.8634 16.4879 26.7242 16.187 26.7944 15.3526C26.9226 13.8277 26.734 12.2514 26.1845 10.7165C24.401 5.73442 18.413 0.0616119 13.1104 4.94338e-05C12.5442 -0.00651307 12.219 0.641737 12.5532 1.09886C12.9988 1.70824 13.3606 2.39517 13.6168 3.14867C14.4577 5.62211 13.94 8.25549 12.4594 10.212C11.8422 11.0276 10.5315 10.6248 10.51 9.60217C10.5098 9.5948 10.5097 9.58736 10.5095 9.57992C10.5009 9.0378 10.5898 8.5173 10.7604 8.03524C10.8357 7.82267 10.6386 7.61349 10.4227 7.67855C7.41667 8.58461 5.13086 13.0081 5.13086 16.1633C5.13086 16.3937 5.14367 16.6212 5.16748 16.8453C5.17042 17.2644 5.24123 17.6906 5.38929 18.1098C5.39461 18.1249 5.39998 18.1399 5.40536 18.1549C5.45148 18.2837 5.50048 18.4107 5.55086 18.5367C4.83892 17.6664 4.23329 16.7057 3.75429 15.6742C3.53173 15.1949 2.82729 15.29 2.74079 15.8114C2.58667 16.7397 2.50598 17.6452 2.50598 18.506C2.50598 25.9585 8.54742 32 15.9999 32C23.4524 32 29.4939 25.9585 29.4939 18.506C29.4939 17.6452 29.4132 16.7396 29.259 15.8111C29.1727 15.291 28.4687 15.1936 28.2467 15.6719Z" fill="url(#paint0_linear_1701_631)"/>
<path d="M5.13061 16.1629C5.13061 16.3934 5.14342 16.6208 5.16724 16.8449C5.17017 17.264 5.24099 17.6902 5.38905 18.1094C5.39436 18.1245 5.39974 18.1395 5.40511 18.1545C5.45124 18.2833 5.50024 18.4103 5.55061 18.5363C4.83867 17.666 4.23305 16.7053 3.75405 15.6738C3.53149 15.1945 2.82705 15.2896 2.74055 15.8109C2.58642 16.7393 2.50574 17.6448 2.50574 18.5056C2.50567 25.9582 8.54711 31.9996 15.9996 31.9996C23.4521 31.9996 29.4935 25.9582 29.4935 18.5057C29.4935 17.6448 29.4129 16.7393 29.2587 15.8108C29.1723 15.2907 28.4683 15.1933 28.2464 15.6715C28.2374 15.6909 28.2283 15.7103 28.2192 15.7297C27.863 16.4875 26.7238 16.1866 26.794 15.3523C26.8237 14.9993 26.8355 14.6434 26.8307 14.2861H5.3613C5.21092 14.9353 5.13061 15.5714 5.13061 16.1629Z" fill="url(#paint1_linear_1701_631)"/>
<path d="M5.13061 16.1629C5.13061 16.3934 5.14342 16.6208 5.16724 16.8449C5.17017 17.264 5.24099 17.6902 5.38905 18.1094C5.39436 18.1245 5.39974 18.1395 5.40511 18.1545C5.45124 18.2833 5.50024 18.4103 5.55061 18.5363C4.83867 17.666 4.23305 16.7053 3.75405 15.6738C3.53149 15.1945 2.82705 15.2896 2.74055 15.8109C2.58642 16.7393 2.50574 17.6448 2.50574 18.5056C2.50567 25.9582 8.54711 31.9996 15.9996 31.9996C23.4521 31.9996 29.4935 25.9582 29.4935 18.5057C29.4935 17.6448 29.4129 16.7393 29.2587 15.8108C29.1723 15.2907 28.4683 15.1933 28.2464 15.6715C28.2374 15.6909 28.2283 15.7103 28.2192 15.7297C27.863 16.4875 26.7238 16.1866 26.794 15.3523C26.8237 14.9993 26.8355 14.6434 26.8307 14.2861H5.3613C5.21092 14.9353 5.13061 15.5714 5.13061 16.1629Z" fill="url(#paint2_linear_1701_631)"/>
<path d="M29.4932 18.506C29.4932 17.6452 29.4126 16.7396 29.2584 15.8111C29.172 15.291 28.468 15.1936 28.2461 15.6719C28.2371 15.6913 28.228 15.7107 28.2189 15.73C27.8627 16.4879 26.7235 16.187 26.7937 15.3526C26.9219 13.8277 26.7333 12.2514 26.1839 10.7165C24.4004 5.73442 18.4124 0.0616119 13.1098 4.94337e-05C12.5436 -0.00651307 12.2184 0.641737 12.5526 1.09892C12.9982 1.7083 13.36 2.39524 13.6162 3.14874C14.4571 5.62217 13.9394 8.25555 12.4588 10.212C12.1514 10.6182 11.6722 10.722 11.2657 10.5979V31.1455C12.7387 31.6974 14.3336 32 15.9993 32C23.4518 32 29.4932 25.9585 29.4932 18.506Z" fill="url(#paint3_linear_1701_631)"/>
<path d="M28.4659 23.6803L19.6938 14.9082L10.7404 27.7803L14.9171 31.9571C15.2745 31.9855 15.6356 32.0004 16.0003 32.0004C21.6197 32.0004 26.4362 28.5651 28.4659 23.6803Z" fill="url(#paint4_linear_1701_631)"/>
<path d="M22.8366 20.8067C22.8316 20.8176 22.8266 20.8284 22.8215 20.8392C22.6227 21.2622 21.9868 21.0943 22.0259 20.6286C22.0975 19.7773 21.9922 18.8975 21.6855 18.0407C20.6899 15.2596 17.3473 12.093 14.3874 12.0586C14.0713 12.0549 13.8898 12.4168 14.0764 12.672C14.3251 13.0122 14.5271 13.3956 14.6701 13.8162C15.1395 15.1969 14.8505 16.6669 14.024 17.7591C13.6795 18.2144 12.9479 17.9895 12.9358 17.4186C12.9358 17.4145 12.9356 17.4104 12.9356 17.4062C12.9307 17.1036 12.9804 16.813 13.0756 16.5439C13.1176 16.4253 13.0076 16.3085 12.8871 16.3448C11.2091 16.8506 9.93321 19.3198 9.93321 21.0811C9.93321 21.2097 9.9404 21.3366 9.95365 21.4617C9.95527 21.6957 9.99483 21.9336 10.0775 22.1676C10.0805 22.1759 10.0834 22.1844 10.0864 22.1927C10.1121 22.2647 10.1395 22.3355 10.1676 22.4059C9.77015 21.9201 9.43215 21.3837 9.16471 20.808C9.04046 20.5404 8.64727 20.5936 8.59896 20.8846C8.5129 21.4028 8.4679 21.9082 8.4679 22.3887C8.4679 26.5488 11.8403 29.9212 16.0003 29.9212C20.1604 29.9212 23.5328 26.5488 23.5328 22.3887C23.5328 21.9082 23.4877 21.4027 23.4016 20.8844C23.3535 20.5942 22.9605 20.5398 22.8366 20.8067Z" fill="url(#paint5_linear_1701_631)"/>
<path d="M23.5333 22.3888C23.5333 21.9082 23.4882 21.4027 23.4021 20.8845C23.354 20.5942 22.961 20.5398 22.8371 20.8067C22.832 20.8176 22.827 20.8284 22.8219 20.8392C22.6231 21.2622 21.9872 21.0943 22.0263 20.6286C22.0979 19.7773 21.9926 18.8975 21.6859 18.0407C20.6903 15.2596 17.3478 12.093 14.3878 12.0586C14.0717 12.0549 13.8903 12.4168 14.0768 12.672C14.3255 13.0122 14.5275 13.3956 14.6705 13.8162C15.1399 15.1969 14.851 16.6669 14.0245 17.7591C13.8529 17.9857 13.5854 18.0437 13.3585 17.9744V29.4442C14.1808 29.7523 15.071 29.9212 16.0008 29.9212C20.1609 29.9212 23.5333 26.5488 23.5333 22.3888Z" fill="url(#paint6_linear_1701_631)"/>
<path d="M9.93321 21.0809C9.93321 21.2095 9.9404 21.3365 9.95365 21.4616C9.95527 21.6955 9.99483 21.9334 10.0775 22.1674C10.0805 22.1758 10.0834 22.1842 10.0864 22.1926C10.1121 22.2645 10.1395 22.3353 10.1676 22.4057C9.77015 21.9199 9.43215 21.3836 9.16471 20.8078C9.04046 20.5403 8.64727 20.5935 8.59896 20.8844C8.5129 21.4026 8.4679 21.9081 8.4679 22.3886C8.4679 26.5486 11.8403 29.921 16.0003 29.921C20.1604 29.921 23.5328 26.5486 23.5328 22.3886C23.5328 21.908 23.4877 21.4025 23.4016 20.8843C23.3535 20.594 22.9605 20.5396 22.8366 20.8065C22.8315 20.8174 22.8265 20.8282 22.8214 20.839C22.6226 21.262 21.9867 21.0941 22.0258 20.6283C22.0424 20.4313 22.049 20.2327 22.0463 20.0332H10.062C9.97808 20.3956 9.93321 20.7507 9.93321 21.0809Z" fill="url(#paint7_linear_1701_631)"/>
<path d="M9.93321 21.0809C9.93321 21.2095 9.9404 21.3365 9.95365 21.4616C9.95527 21.6955 9.99483 21.9334 10.0775 22.1674C10.0805 22.1758 10.0834 22.1842 10.0864 22.1926C10.1121 22.2645 10.1395 22.3353 10.1676 22.4057C9.77015 21.9199 9.43215 21.3836 9.16471 20.8078C9.04046 20.5403 8.64727 20.5935 8.59896 20.8844C8.5129 21.4026 8.4679 21.9081 8.4679 22.3886C8.4679 26.5486 11.8403 29.921 16.0003 29.921C20.1604 29.921 23.5328 26.5486 23.5328 22.3886C23.5328 21.908 23.4877 21.4025 23.4016 20.8843C23.3535 20.594 22.9605 20.5396 22.8366 20.8065C22.8315 20.8174 22.8265 20.8282 22.8214 20.839C22.6226 21.262 21.9867 21.0941 22.0258 20.6283C22.0424 20.4313 22.049 20.2327 22.0463 20.0332H10.062C9.97808 20.3956 9.93321 20.7507 9.93321 21.0809Z" fill="url(#paint8_linear_1701_631)"/>
<path d="M3.9486 11.2081C4.93591 11.4106 5.72266 10.3953 5.32853 9.46765C5.03397 8.7744 5.08022 7.95152 5.52453 7.27452C5.52528 7.2734 5.52603 7.27227 5.52672 7.27115C5.63903 7.10065 5.54935 6.87115 5.35016 6.82627C4.42978 6.61896 3.43678 6.98621 2.88853 7.82152C2.18203 8.89802 2.48197 10.3435 3.55847 11.05C3.67903 11.129 3.8106 11.1798 3.9486 11.2081Z" fill="url(#paint9_linear_1701_631)"/>
<path d="M3.9486 11.2081C4.93591 11.4106 5.72266 10.3953 5.32853 9.46765C5.03397 8.7744 5.08022 7.95152 5.52453 7.27452C5.52528 7.2734 5.52603 7.27227 5.52672 7.27115C5.63903 7.10065 5.54935 6.87115 5.35016 6.82627C4.42978 6.61896 3.43678 6.98621 2.88853 7.82152C2.18203 8.89802 2.48197 10.3435 3.55847 11.05C3.67903 11.129 3.8106 11.1798 3.9486 11.2081Z" fill="url(#paint10_linear_1701_631)"/>
<path d="M3.9486 11.2081C4.93591 11.4106 5.72266 10.3953 5.32853 9.46765C5.03397 8.7744 5.08022 7.95152 5.52453 7.27452C5.52528 7.2734 5.52603 7.27227 5.52672 7.27115C5.63903 7.10065 5.54935 6.87115 5.35016 6.82627C4.42978 6.61896 3.43678 6.98621 2.88853 7.82152C2.18203 8.89802 2.48197 10.3435 3.55847 11.05C3.67903 11.129 3.8106 11.1798 3.9486 11.2081Z" fill="url(#paint11_linear_1701_631)"/>
</g>
<defs>
<linearGradient id="paint0_linear_1701_631" x1="9.00842" y1="11.036" x2="22.2069" y2="24.2345" gradientUnits="userSpaceOnUse">
<stop stop-color="#FFA1AE"/>
<stop offset="1" stop-color="#FF4565"/>
</linearGradient>
<linearGradient id="paint1_linear_1701_631" x1="19.0063" y1="23.3059" x2="23.6845" y2="28.9643" gradientUnits="userSpaceOnUse">
<stop stop-color="#FE0364" stop-opacity="0"/>
<stop offset="0.2343" stop-color="#F90362" stop-opacity="0.234"/>
<stop offset="0.5173" stop-color="#EA035B" stop-opacity="0.517"/>
<stop offset="0.8243" stop-color="#D20250" stop-opacity="0.824"/>
<stop offset="1" stop-color="#C00148"/>
</linearGradient>
<linearGradient id="paint2_linear_1701_631" x1="15.5757" y1="23.0785" x2="14.7292" y2="32.2567" gradientUnits="userSpaceOnUse">
<stop stop-color="#FE0364" stop-opacity="0"/>
<stop offset="0.2343" stop-color="#F90362" stop-opacity="0.234"/>
<stop offset="0.5173" stop-color="#EA035B" stop-opacity="0.517"/>
<stop offset="0.8243" stop-color="#D20250" stop-opacity="0.824"/>
<stop offset="1" stop-color="#C00148"/>
</linearGradient>
<linearGradient id="paint3_linear_1701_631" x1="19.3111" y1="14.4619" x2="27.6873" y2="10.6302" gradientUnits="userSpaceOnUse">
<stop stop-color="#FE0364" stop-opacity="0"/>
<stop offset="0.2343" stop-color="#F90362" stop-opacity="0.234"/>
<stop offset="0.5173" stop-color="#EA035B" stop-opacity="0.517"/>
<stop offset="0.8243" stop-color="#D20250" stop-opacity="0.824"/>
<stop offset="1" stop-color="#C00148"/>
</linearGradient>
<linearGradient id="paint4_linear_1701_631" x1="26.1426" y1="29.9645" x2="15.8951" y2="22.3902" gradientUnits="userSpaceOnUse">
<stop stop-color="#FE0364" stop-opacity="0"/>
<stop offset="0.2343" stop-color="#F90362" stop-opacity="0.234"/>
<stop offset="0.5173" stop-color="#EA035B" stop-opacity="0.517"/>
<stop offset="0.8243" stop-color="#D20250" stop-opacity="0.824"/>
<stop offset="1" stop-color="#C00148"/>
</linearGradient>
<linearGradient id="paint5_linear_1701_631" x1="12.9069" y1="18.6759" x2="18.9663" y2="25.7155" gradientUnits="userSpaceOnUse">
<stop stop-color="#FEF0AE"/>
<stop offset="1" stop-color="#FAC600"/>
</linearGradient>
<linearGradient id="paint6_linear_1701_631" x1="19.4326" y1="19.7259" x2="21.4821" y2="19.013" gradientUnits="userSpaceOnUse">
<stop stop-color="#FE9738" stop-opacity="0"/>
<stop offset="1" stop-color="#FE9738"/>
</linearGradient>
<linearGradient id="paint7_linear_1701_631" x1="13.9088" y1="26.1903" x2="12.394" y2="28.6557" gradientUnits="userSpaceOnUse">
<stop stop-color="#FE9738" stop-opacity="0"/>
<stop offset="1" stop-color="#FE9738"/>
</linearGradient>
<linearGradient id="paint8_linear_1701_631" x1="17.8045" y1="26.4392" x2="18.9926" y2="28.964" gradientUnits="userSpaceOnUse">
<stop stop-color="#FE9738" stop-opacity="0"/>
<stop offset="1" stop-color="#FE9738"/>
</linearGradient>
<linearGradient id="paint9_linear_1701_631" x1="3.17491" y1="7.85434" x2="5.93728" y2="10.1712" gradientUnits="userSpaceOnUse">
<stop stop-color="#FFA1AE"/>
<stop offset="1" stop-color="#FF4565"/>
</linearGradient>
<linearGradient id="paint10_linear_1701_631" x1="3.91078" y1="9.58859" x2="3.28697" y2="11.2148" gradientUnits="userSpaceOnUse">
<stop stop-color="#FE0364" stop-opacity="0"/>
<stop offset="0.2343" stop-color="#F90362" stop-opacity="0.234"/>
<stop offset="0.5173" stop-color="#EA035B" stop-opacity="0.517"/>
<stop offset="0.8243" stop-color="#D20250" stop-opacity="0.824"/>
<stop offset="1" stop-color="#C00148"/>
</linearGradient>
<linearGradient id="paint11_linear_1701_631" x1="3.89478" y1="8.79534" x2="5.92197" y2="9.39684" gradientUnits="userSpaceOnUse">
<stop stop-color="#FE0364" stop-opacity="0"/>
<stop offset="0.2343" stop-color="#F90362" stop-opacity="0.234"/>
<stop offset="0.5173" stop-color="#EA035B" stop-opacity="0.517"/>
<stop offset="0.8243" stop-color="#D20250" stop-opacity="0.824"/>
<stop offset="1" stop-color="#C00148"/>
</linearGradient>
<clipPath id="clip0_1701_631">
<rect width="32" height="32" fill="white"/>
</clipPath>
</defs>
</svg>
