<svg width="20" height="20" viewBox="0 0 20 20" fill="none" xmlns="http://www.w3.org/2000/svg">
<path fill-rule="evenodd" clip-rule="evenodd" d="M5 6.25C5 5.90483 5.27983 5.625 5.625 5.625H15.625C15.9702 5.625 16.25 5.90483 16.25 6.25C16.25 6.59519 15.9702 6.875 15.625 6.875H5.625C5.27983 6.875 5 6.59519 5 6.25Z" fill="white"/>
<path fill-rule="evenodd" clip-rule="evenodd" d="M5 3.125C5 2.77983 5.27983 2.5 5.625 2.5H15.625C15.9702 2.5 16.25 2.77983 16.25 3.125C16.25 3.47018 15.9702 3.75 15.625 3.75H5.625C5.27983 3.75 5 3.47018 5 3.125Z" fill="white"/>
<path fill-rule="evenodd" clip-rule="evenodd" d="M7.81252 3.125C7.81252 2.77983 8.09233 2.5 8.43752 2.5C9.68071 2.5 10.873 2.99386 11.7521 3.87294C12.6311 4.75201 13.125 5.9443 13.125 7.1875C13.125 8.43069 12.6311 9.623 11.7521 10.5021C10.873 11.3811 9.68071 11.875 8.43752 11.875H7.24164L12.9205 17.0376C13.1758 17.2697 13.1947 17.665 12.9625 17.9204C12.7303 18.1758 12.335 18.1946 12.0796 17.9624L5.20461 11.7124C5.01354 11.5388 4.94896 11.2654 5.04208 11.0246C5.13518 10.7838 5.36681 10.625 5.62502 10.625H8.43752C9.34921 10.625 10.2235 10.2628 10.8682 9.61819C11.5128 8.9735 11.875 8.09919 11.875 7.1875C11.875 6.27581 11.5128 5.40147 10.8682 4.75682C10.2235 4.11216 9.34921 3.75 8.43752 3.75C8.09233 3.75 7.81252 3.47018 7.81252 3.125Z" fill="white"/>
</svg>
