<svg width="26" height="26" viewBox="0 0 26 26" fill="none" xmlns="http://www.w3.org/2000/svg">
<g clip-path="url(#clip0_1690_1856)">
<path d="M11.0409 3.29316C11.4507 2.60863 12.2017 2.18359 13 2.18359C13.7983 2.18359 14.5493 2.60863 14.9597 3.29367L15.5228 4.23211C16.1317 3.75984 16.8081 3.37898 17.5292 3.10375C17.2052 2.40348 16.6309 1.83016 15.8915 1.51328C15.0297 1.1441 14.205 0.681992 13.4403 0.140156C13.1767 -0.0467188 12.8233 -0.0467188 12.5597 0.140156C11.795 0.681992 10.9703 1.1441 10.1085 1.51328C9.36915 1.83016 8.79481 2.40348 8.47083 3.10375C9.19192 3.37898 9.86833 3.75984 10.4772 4.23211L11.0409 3.29316Z" fill="#8391A1"/>
<path d="M5.33203 9.34375V9.75C5.33203 10.1707 5.6742 10.5117 6.09629 10.5117H19.9545C20.3766 10.5117 20.7188 10.1707 20.7188 9.75V9.34375C20.7188 8.92308 20.3766 8.58203 19.9545 8.58203H6.09629C5.6742 8.58203 5.33203 8.92308 5.33203 9.34375Z" fill="#8391A1"/>
<path d="M6.02975 7.05961C6.05159 7.0591 6.07393 7.05859 6.09628 7.05859H8.78159L9.68651 5.55039C8.57846 4.63633 7.16979 4.11328 5.68749 4.11328C5.41784 4.11328 5.168 4.25598 5.03089 4.48855C4.89428 4.72113 4.89073 5.00906 5.02175 5.24469L6.02975 7.05961Z" fill="#8391A1"/>
<path d="M17.2189 7.05859H19.9702L20.9782 5.24469C21.1093 5.00906 21.1057 4.72113 20.9691 4.48855C20.832 4.25598 20.5821 4.11328 20.3125 4.11328C18.8302 4.11328 17.4215 4.63633 16.3135 5.55039L17.2189 7.05859Z" fill="#8391A1"/>
<path d="M12.9997 3.70703C12.7321 3.70703 12.4843 3.84719 12.3466 4.07672L10.5576 7.05859H15.4418L13.6527 4.07672C13.5151 3.84719 13.2673 3.70703 12.9997 3.70703Z" fill="#8391A1"/>
<path d="M20.6842 13.5454L19.4492 12.6191V12.0352H6.55078V12.6191L5.31578 13.5454C4.05387 14.492 3.30078 15.9981 3.30078 17.5754C3.30078 18.4326 3.52168 19.2811 3.93961 20.0302L7.05352 25.6095C7.18809 25.8507 7.4425 26 7.71875 26H18.2812C18.5575 26 18.8119 25.8507 18.9465 25.6095L22.0604 20.0302C22.4783 19.2811 22.6992 18.4326 22.6992 17.5754C22.6992 15.9981 21.9461 14.492 20.6842 13.5454ZM17.0117 19.0938C17.0117 19.5144 16.6707 19.8555 16.25 19.8555H13.7617V21.582H14.625C15.0457 21.582 15.3867 21.9231 15.3867 22.3438C15.3867 22.7644 15.0457 23.1055 14.625 23.1055H13C12.5793 23.1055 12.2383 22.7644 12.2383 22.3438V19.8555H10.5117V20.7188C10.5117 21.1394 10.1707 21.4805 9.75 21.4805C9.32933 21.4805 8.98828 21.1394 8.98828 20.7188V19.0938C8.98828 18.6731 9.32933 18.332 9.75 18.332H12.2383V16.6055H11.375C10.9543 16.6055 10.6133 16.2644 10.6133 15.8438C10.6133 15.4231 10.9543 15.082 11.375 15.082H13C13.4207 15.082 13.7617 15.4231 13.7617 15.8438V18.332H15.4883V17.4688C15.4883 17.0481 15.8293 16.707 16.25 16.707C16.6707 16.707 17.0117 17.0481 17.0117 17.4688V19.0938Z" fill="#8391A1"/>
</g>
<defs>
<clipPath id="clip0_1690_1856">
<rect width="26" height="26" fill="white"/>
</clipPath>
</defs>
</svg>
