<svg width="20" height="20" viewBox="0 0 20 20" fill="none" xmlns="http://www.w3.org/2000/svg">
<mask id="mask0_1705_904" style="mask-type:luminance" maskUnits="userSpaceOnUse" x="0" y="0" width="20" height="20">
<path d="M0 0H20V20H0V0Z" fill="white"/>
</mask>
<g mask="url(#mask0_1705_904)">
<path d="M8.26029 3.99312C5.65681 4.74656 3.7533 7.1482 3.7533 9.99441C3.7533 13.4444 6.55005 16.2412 10.0001 16.2412C13.4501 16.2412 16.2469 13.4444 16.2469 9.99441C16.2469 7.1482 14.3433 4.74656 11.7398 3.99312" stroke="white" stroke-miterlimit="10" stroke-linecap="round" stroke-linejoin="round"/>
<path d="M12.3597 4.21094C12.3623 4.14582 12.3636 4.0809 12.3636 4.01629C12.3636 2.2734 11.4116 1.19305 9.99995 0.385352C8.58834 1.19305 7.63635 2.2734 7.63635 4.01629C7.63635 4.08039 7.63764 4.14477 7.64018 4.20938" stroke="white" stroke-miterlimit="10" stroke-linecap="round" stroke-linejoin="round"/>
<path d="M12.3597 15.7789C12.3623 15.844 12.3636 15.9089 12.3636 15.9736C12.3636 17.7164 11.4116 18.7968 9.99995 19.6045C8.58834 18.7968 7.63635 17.7164 7.63635 15.9736C7.63635 15.9095 7.63764 15.8451 7.64018 15.7805" stroke="white" stroke-miterlimit="10" stroke-linecap="round" stroke-linejoin="round"/>
<path d="M15.7837 12.3555C15.8488 12.358 15.9137 12.3594 15.9783 12.3594C17.7212 12.3594 18.8016 11.4074 19.6093 9.99574C18.8016 8.58414 17.7212 7.63215 15.9783 7.63215C15.9142 7.63215 15.8499 7.63344 15.7853 7.63598" stroke="white" stroke-miterlimit="10" stroke-linecap="round" stroke-linejoin="round"/>
<path d="M4.21621 12.3555C4.15109 12.358 4.08617 12.3594 4.02156 12.3594C2.27867 12.3594 1.19832 11.4074 0.390625 9.99574C1.19832 8.58414 2.27867 7.63215 4.02156 7.63215C4.08566 7.63215 4.15004 7.63344 4.21465 7.63598" stroke="white" stroke-miterlimit="10" stroke-linecap="round" stroke-linejoin="round"/>
<path d="M15.7583 7.57324C15.8062 7.52902 15.8531 7.48406 15.8987 7.43836C17.1311 6.20598 17.2219 4.76887 16.7949 3.19957C15.2256 2.77254 13.7885 2.86328 12.5561 4.0957C12.5108 4.14102 12.4661 4.18746 12.4222 4.23496" stroke="white" stroke-miterlimit="10" stroke-linecap="round" stroke-linejoin="round"/>
<path d="M7.5788 15.7534C7.53458 15.8013 7.48962 15.8482 7.44392 15.8938C6.21153 17.1263 4.77442 17.217 3.20513 16.79C2.7781 15.2207 2.86884 13.7836 4.10126 12.5512C4.14657 12.5059 4.19302 12.4613 4.24052 12.4174" stroke="white" stroke-miterlimit="10" stroke-linecap="round" stroke-linejoin="round"/>
<path d="M12.4211 15.7534C12.4654 15.8013 12.5103 15.8482 12.556 15.8938C13.7884 17.1263 15.2255 17.217 16.7948 16.79C17.2218 15.2207 17.1311 13.7836 15.8987 12.5512C15.8534 12.5059 15.8069 12.4613 15.7594 12.4174" stroke="white" stroke-miterlimit="10" stroke-linecap="round" stroke-linejoin="round"/>
<path d="M4.24167 7.57324C4.19378 7.52902 4.14694 7.48406 4.10128 7.43836C2.86886 6.20598 2.77807 4.76887 3.20514 3.19957C4.77444 2.77254 6.21151 2.86328 7.44393 4.0957C7.48925 4.14102 7.53386 4.18746 7.57776 4.23496" stroke="white" stroke-miterlimit="10" stroke-linecap="round" stroke-linejoin="round"/>
<path d="M8.51718 1.55367C7.16183 1.07777 5.66765 1.69262 5.03394 2.96875" stroke="white" stroke-miterlimit="10" stroke-linecap="round" stroke-linejoin="round"/>
<path d="M11.4828 1.55367C12.8381 1.07777 14.3323 1.69262 14.966 2.96875" stroke="white" stroke-miterlimit="10" stroke-linecap="round" stroke-linejoin="round"/>
<path d="M8.51718 18.4362C7.16183 18.9121 5.66765 18.2972 5.03394 17.0211" stroke="white" stroke-miterlimit="10" stroke-linecap="round" stroke-linejoin="round"/>
<path d="M11.4828 18.4362C12.8381 18.9121 14.3323 18.2972 14.966 17.0211" stroke="white" stroke-miterlimit="10" stroke-linecap="round" stroke-linejoin="round"/>
<path d="M18.4412 8.5127C18.9171 7.15734 18.3023 5.66316 17.0261 5.02945" stroke="white" stroke-miterlimit="10" stroke-linecap="round" stroke-linejoin="round"/>
<path d="M18.4413 11.4777C18.9172 12.833 18.3024 14.3272 17.0262 14.9609" stroke="white" stroke-miterlimit="10" stroke-linecap="round" stroke-linejoin="round"/>
<path d="M1.5587 8.5127C1.0828 7.15734 1.69764 5.66316 2.97377 5.02945" stroke="white" stroke-miterlimit="10" stroke-linecap="round" stroke-linejoin="round"/>
<path d="M1.5587 11.4777C1.0828 12.833 1.69764 14.3272 2.97377 14.9609" stroke="white" stroke-miterlimit="10" stroke-linecap="round" stroke-linejoin="round"/>
<path d="M9.54089 6.67812C9.65128 7.53836 10.3863 8.20312 11.2765 8.20312C11.7485 8.20312 12.1768 8.01625 12.4916 7.71246" stroke="white" stroke-miterlimit="10" stroke-linecap="round" stroke-linejoin="round"/>
<path d="M9.4863 10.9883C9.76498 11.2578 9.93826 11.6356 9.93826 12.0539C9.93826 12.8725 9.27466 13.5361 8.45603 13.5361C7.95853 13.5361 7.51822 13.291 7.24939 12.9149" stroke="white" stroke-miterlimit="10" stroke-linecap="round" stroke-linejoin="round"/>
<path d="M9.18323 11.1631C9.56011 10.9828 9.82042 10.598 9.82042 10.1523C9.82042 9.53387 9.31909 9.0325 8.70062 9.0325C8.19515 9.0325 7.76792 9.36738 7.62866 9.82742" stroke="white" stroke-miterlimit="10" stroke-linecap="round" stroke-linejoin="round"/>
<path d="M11.9016 12.4766C12.3964 12.3009 12.7506 11.8286 12.7506 11.2736C12.7506 10.5688 12.1792 9.99742 11.4744 9.99742C11.1227 9.99742 10.8041 10.1397 10.5733 10.3699L9.85437 11.0888" stroke="white" stroke-miterlimit="10" stroke-linecap="round" stroke-linejoin="round"/>
</g>
</svg>
