<svg width="16" height="16" viewBox="0 0 16 16" fill="none" xmlns="http://www.w3.org/2000/svg">
<g clip-path="url(#clip0_1701_707)">
<path d="M15.5835 13.6039L9.30956 7.33L1.97956 0H1.40672L1.28975 0.297219C0.981034 1.08172 0.849128 1.88409 0.908346 2.6175C0.975846 3.4535 1.29344 4.17728 1.82685 4.71069L7.54903 10.4329L8.30378 9.67813L13.5939 15.5935C14.1202 16.1198 15.026 16.151 15.5835 15.5935C16.132 15.045 16.132 14.1525 15.5835 13.6039Z" fill="white"/>
<path d="M4.89773 9.10742L0.416136 13.589C-0.132364 14.1375 -0.132364 15.03 0.416136 15.5785C0.937198 16.0996 1.8386 16.1456 2.40567 15.5785L6.88729 11.0969L4.89773 9.10742Z" fill="white"/>
<path d="M15.3201 2.66447L12.7779 5.20666L12.1146 4.54347L14.6569 2.00125L13.9937 1.33806L11.4515 3.88025L10.7883 3.21706L13.3305 0.674875L12.6674 0.0117188L9.35143 3.32766C8.94577 3.73331 8.70355 4.27194 8.6693 4.84438C8.66065 4.98941 8.62777 5.13206 8.57324 5.26775L10.7273 7.42178C10.863 7.36719 11.0056 7.33434 11.1506 7.32569C11.7231 7.29153 12.2617 7.04925 12.6674 6.64359L15.9833 3.32769L15.3201 2.66447Z" fill="white"/>
</g>
<defs>
<clipPath id="clip0_1701_707">
<rect width="16" height="16" fill="white"/>
</clipPath>
</defs>
</svg>
