<svg width="27" height="25" viewBox="0 0 27 25" fill="none" xmlns="http://www.w3.org/2000/svg">
<path d="M24.2864 2.48846C24.1764 2.38418 24.0364 2.31291 23.8839 2.28357C23.7315 2.25422 23.5732 2.2681 23.429 2.32346L2.71664 10.2787C2.57794 10.3312 2.45774 10.4197 2.3699 10.5341C2.28207 10.6486 2.23019 10.7842 2.22026 10.9254C2.21033 11.0665 2.24274 11.2075 2.31376 11.3319C2.38479 11.4564 2.49152 11.5593 2.62164 11.6287L9.55584 15.3802L14.7706 10.4437C14.9209 10.3126 15.1188 10.2417 15.3231 10.2457C15.5273 10.2497 15.722 10.3284 15.8665 10.4652C16.0109 10.6021 16.0939 10.7865 16.0982 10.98C16.1024 11.1735 16.0275 11.3611 15.8892 11.5035L10.6776 16.4437L14.6423 23.0152C14.712 23.1296 14.8123 23.2244 14.9331 23.2903C15.0539 23.3561 15.1909 23.3906 15.3303 23.3902H15.3833C15.5314 23.3807 15.6737 23.3319 15.794 23.2494C15.9142 23.1669 16.0076 23.0541 16.0633 22.9237L24.4606 3.29996C24.5188 3.16344 24.5334 3.01368 24.5024 2.86937C24.4714 2.72507 24.3963 2.59259 24.2864 2.48846Z" fill="white"/>
</svg>
