<svg width="25" height="16" viewBox="0 0 25 16" fill="none" xmlns="http://www.w3.org/2000/svg">
<path d="M24.2203 7.20103C22.9151 5.57617 18.2536 0.275391 12.5 0.275391C6.74639 0.275391 2.08491 5.57617 0.779689 7.20103C0.40677 7.65386 0.40677 8.31979 0.779689 8.79925C2.08491 10.4241 6.74639 15.7249 12.5 15.7249C18.2536 15.7249 22.9151 10.4241 24.2203 8.79925C24.5932 8.34642 24.5932 7.6805 24.2203 7.20103ZM12.5 13.5939C9.4101 13.5939 6.90622 11.09 6.90622 8.00014C6.90622 4.91024 9.4101 2.40636 12.5 2.40636C15.5899 2.40636 18.0938 4.91024 18.0938 8.00014C18.0938 11.09 15.5899 13.5939 12.5 13.5939Z" fill="#FF5A60"/>
</svg>
