<svg width="24" height="24" viewBox="0 0 24 24" fill="none" xmlns="http://www.w3.org/2000/svg">
<g opacity="0.8">
<path d="M14.25 9.1875H12C11.6895 9.1875 11.4375 8.93587 11.4375 8.625C11.4375 8.31413 11.6895 8.0625 12 8.0625H14.25C14.5605 8.0625 14.8125 8.31413 14.8125 8.625C14.8125 8.93587 14.5605 9.1875 14.25 9.1875Z" fill="black"/>
<path d="M3.75 16.6875C3.4395 16.6875 3.1875 16.4359 3.1875 16.125V7.875C3.1875 7.56413 3.4395 7.3125 3.75 7.3125C4.0605 7.3125 4.3125 7.56413 4.3125 7.875V16.125C4.3125 16.4359 4.0605 16.6875 3.75 16.6875Z" fill="black"/>
<path d="M16.5 16.6875C16.1895 16.6875 15.9375 16.4359 15.9375 16.125V7.875C15.9375 7.56413 16.1895 7.3125 16.5 7.3125C16.8105 7.3125 17.0625 7.56413 17.0625 7.875V16.125C17.0625 16.4359 16.8105 16.6875 16.5 16.6875Z" fill="black"/>
<path d="M15 18.1875H5.25C4.9395 18.1875 4.6875 17.9359 4.6875 17.625C4.6875 17.3141 4.9395 17.0625 5.25 17.0625H15C15.3105 17.0625 15.5625 17.3141 15.5625 17.625C15.5625 17.9359 15.3105 18.1875 15 18.1875Z" fill="black"/>
<path d="M15 18.1875C14.6895 18.1875 14.4375 17.9359 14.4375 17.625C14.4375 17.3141 14.6895 17.0625 15 17.0625C15.5171 17.0625 15.9375 16.6417 15.9375 16.125C15.9375 15.8141 16.1895 15.5625 16.5 15.5625C16.8105 15.5625 17.0625 15.8141 17.0625 16.125C17.0625 17.2624 16.137 18.1875 15 18.1875Z" fill="black"/>
<path d="M5.25 18.1875C4.113 18.1875 3.1875 17.2624 3.1875 16.125C3.1875 15.8141 3.4395 15.5625 3.75 15.5625C4.0605 15.5625 4.3125 15.8141 4.3125 16.125C4.3125 16.6417 4.73287 17.0625 5.25 17.0625C5.5605 17.0625 5.8125 17.3141 5.8125 17.625C5.8125 17.9359 5.5605 18.1875 5.25 18.1875Z" fill="black"/>
<path d="M15 6.9375H5.25C4.9395 6.9375 4.6875 6.68587 4.6875 6.375C4.6875 6.06413 4.9395 5.8125 5.25 5.8125H15C15.3105 5.8125 15.5625 6.06413 15.5625 6.375C15.5625 6.68587 15.3105 6.9375 15 6.9375Z" fill="black"/>
<path d="M16.5 8.4375C16.1895 8.4375 15.9375 8.18587 15.9375 7.875C15.9375 7.35825 15.5171 6.9375 15 6.9375C14.6895 6.9375 14.4375 6.68587 14.4375 6.375C14.4375 6.06413 14.6895 5.8125 15 5.8125C16.137 5.8125 17.0625 6.73763 17.0625 7.875C17.0625 8.18587 16.8105 8.4375 16.5 8.4375Z" fill="black"/>
<path d="M3.75 8.4375C3.4395 8.4375 3.1875 8.18587 3.1875 7.875C3.1875 6.73763 4.113 5.8125 5.25 5.8125C5.5605 5.8125 5.8125 6.06413 5.8125 6.375C5.8125 6.68587 5.5605 6.9375 5.25 6.9375C4.73287 6.9375 4.3125 7.35825 4.3125 7.875C4.3125 8.18587 4.0605 8.4375 3.75 8.4375Z" fill="black"/>
<path d="M20.25 17.1611C19.9395 17.1611 19.6875 16.9095 19.6875 16.5986V7.40137C19.6875 7.09049 19.9395 6.83887 20.25 6.83887C20.5605 6.83887 20.8125 7.09049 20.8125 7.40137V16.5982C20.8125 16.9091 20.5605 17.1611 20.25 17.1611Z" fill="black"/>
<path d="M20.2497 17.1612C20.1387 17.1612 20.027 17.1285 19.9295 17.0607L16.1795 14.4582C15.9241 14.2808 15.8607 13.9305 16.0381 13.6752C16.2155 13.4198 16.5661 13.3568 16.8211 13.5338L20.5711 16.1363C20.8265 16.3137 20.8898 16.6639 20.7125 16.9193C20.603 17.0768 20.4278 17.1612 20.2497 17.1612Z" fill="black"/>
<path d="M16.5005 10.5668C16.3223 10.5668 16.1476 10.4824 16.0381 10.3249C15.8607 10.0695 15.9241 9.7193 16.1795 9.54192L19.9295 6.93942C20.1848 6.7628 20.5351 6.82617 20.7125 7.0808C20.8898 7.33617 20.8265 7.68642 20.5711 7.8638L16.8211 10.4663C16.7232 10.5342 16.6111 10.5668 16.5005 10.5668Z" fill="black"/>
</g>
</svg>
