<svg width="27" height="27" viewBox="0 0 27 27" fill="none" xmlns="http://www.w3.org/2000/svg">
<path d="M23.6838 19.1194L22.2409 17.0438C22.044 16.7616 21.938 16.426 21.9372 16.0819V10.125C21.9372 7.88724 21.0482 5.74113 19.4659 4.15879C17.8836 2.57645 15.7375 1.6875 13.4997 1.6875C11.2619 1.6875 9.11582 2.57645 7.53348 4.15879C5.95114 5.74113 5.06219 7.88724 5.06219 10.125V16.0819C5.06138 16.426 4.95539 16.7616 4.75844 17.0438L3.31563 19.1194C3.09717 19.3614 2.95351 19.6616 2.90203 19.9836C2.85055 20.3055 2.89345 20.6355 3.02554 20.9336C3.15764 21.2318 3.37327 21.4852 3.64636 21.6634C3.91946 21.8415 4.23832 21.9367 4.56438 21.9375H9.36532C9.55897 22.8912 10.0764 23.7486 10.8299 24.3644C11.5833 24.9803 12.5265 25.3167 13.4997 25.3167C14.4728 25.3167 15.4161 24.9803 16.1695 24.3644C16.923 23.7486 17.4404 22.8912 17.6341 21.9375H22.435C22.7611 21.9367 23.0799 21.8415 23.353 21.6634C23.6261 21.4852 23.8417 21.2318 23.9738 20.9336C24.1059 20.6355 24.1488 20.3055 24.0974 19.9836C24.0459 19.6616 23.9022 19.3614 23.6838 19.1194ZM13.4997 23.625C12.9775 23.6235 12.4685 23.4606 12.0425 23.1585C11.6165 22.8563 11.2944 22.4299 11.1203 21.9375H15.8791C15.705 22.4299 15.3829 22.8563 14.9569 23.1585C14.5309 23.4606 14.0219 23.6235 13.4997 23.625ZM4.56438 20.25C4.60252 20.2146 4.63649 20.175 4.66563 20.1319L6.14219 18.0056C6.53609 17.4413 6.74806 16.7701 6.74969 16.0819V10.125C6.74969 8.33479 7.46085 6.6179 8.72672 5.35203C9.99259 4.08616 11.7095 3.375 13.4997 3.375C15.2899 3.375 17.0068 4.08616 18.2727 5.35203C19.5385 6.6179 20.2497 8.33479 20.2497 10.125V16.0819C20.2513 16.7701 20.4633 17.4413 20.8572 18.0056L22.3338 20.1319C22.3629 20.175 22.3969 20.2146 22.435 20.25H4.56438Z" fill="#8391A1"/>
<circle cx="21" cy="5" r="4" fill="#FFC828"/>
</svg>
